{
 "cells": [
  {
   "cell_type": "code",
   "execution_count": 105,
   "metadata": {},
   "outputs": [
    {
     "name": "stdout",
     "output_type": "stream",
     "text": [
      "/home/zedroman/Documents/Sonia_Data/Songs/Naruto/\n",
      "/home/zedroman/Documents/Sonia_Data/Songs/anime_samples/\n"
     ]
    }
   ],
   "source": [
    "import numpy as np\n",
    "import matplotlib\n",
    "from mido import Message, MetaMessage\n",
    "import mido\n",
    "import sys\n",
    "import os\n",
    "\n",
    "def get_pwd(pwdb):\n",
    "#     pwd = input()\n",
    "    pwd = \"\"\n",
    "    if(not pwd):\n",
    "        pwd = pwdb\n",
    "    return pwd\n",
    "\n",
    "pwd = get_pwd(\"/home/zedroman/Documents/Sonia_Data/Songs/Naruto/\")\n",
    "save_pwd=get_pwd(\"/home/zedroman/Documents/Sonia_Data/Songs/anime_samples/\")\n",
    "print(pwd)\n",
    "print(save_pwd)\n",
    "velocity = 64\n",
    "time_range = 240;\n",
    "tempo = 400000\n",
    "pedal_max = 10\n",
    "max_len = 500"
   ]
  },
  {
   "cell_type": "code",
   "execution_count": 106,
   "metadata": {},
   "outputs": [],
   "source": [
    "def is_midi(f):\n",
    "    if (f[len(f)-5:len(f)] == \".midi\"):\n",
    "        return True\n",
    "    if (f[len(f)-4:len(f)] == \".mid\"):\n",
    "        return True\n",
    "    return False"
   ]
  },
  {
   "cell_type": "code",
   "execution_count": 107,
   "metadata": {},
   "outputs": [
    {
     "name": "stdout",
     "output_type": "stream",
     "text": [
      "bluebird.mid\n",
      "carnival.mid\n",
      "kanashimi_yasashisa.mid\n",
      "rocks.mid\n",
      "chala_head_chala.mid\n",
      "we_are.mid\n",
      "zorro.mid\n",
      "angels.mid\n",
      "go_fighting_dreamer.mid\n",
      "newsong.mid\n",
      "we_gotta_power.mid\n",
      "lovers.mid\n"
     ]
    }
   ],
   "source": [
    "music = [f for f in os.listdir(pwd) if is_midi(f)]\n",
    "print(\"\\n\".join(music))"
   ]
  },
  {
   "cell_type": "code",
   "execution_count": 115,
   "metadata": {},
   "outputs": [],
   "source": [
    "def print_midi(midi_file):\n",
    "    for track in midi_file.tracks:\n",
    "        for msg in track:\n",
    "            print(msg)"
   ]
  },
  {
   "cell_type": "code",
   "execution_count": 123,
   "metadata": {},
   "outputs": [],
   "source": [
    "def convert(pwd, num, savepwd):\n",
    "    midi_file = mido.MidiFile(pwd)\n",
    "    concat = mido.MidiFile(type=0)\n",
    "    tr = mido.MidiTrack()\n",
    "    concat.tracks.append(tr)\n",
    "    tr.append(MetaMessage(\"set_tempo\", tempo=tempo, time=0))\n",
    "    time = 0;\n",
    "    notes = []\n",
    "    last_notes = []\n",
    "    pedal = pedal_max\n",
    "    now_len = 0\n",
    "    for j, track in enumerate(midi_file.tracks):\n",
    "        for msg in track:\n",
    "            if (msg.type != \"note_on\"):\n",
    "                continue\n",
    "            if (time + msg.time > time_range):\n",
    "                now_len += 1\n",
    "                pedal -= 1\n",
    "                if (pedal == 0):\n",
    "                    for i in range(len(last_notes) - 1):\n",
    "                        tr.append(Message(\"note_off\", note=last_notes[i], velocity=velocity, time=0, channel=0))\n",
    "                    last_notes = [last_notes[-1]]\n",
    "                    pedal = pedal_max\n",
    "                for i in notes:\n",
    "                    last_notes.append(i)\n",
    "                    tr.append(Message(\"note_on\", note=i, velocity=velocity, time=time_range, channel=0))\n",
    "                    break\n",
    "#                 tr.append(Message(\"note_on\", note = 0, velocity = 0, time = time_range, channel=0))\n",
    "#                 tr.append(Message(\"note_off\", note = 0, velocity = 0, time = 0, channel=0))\n",
    "                for i in notes:\n",
    "#                     tr.append(Message(\"note_off\", note=i, velocity=velocity, time=time_range, channel=0))\n",
    "                    break\n",
    "                notes = []\n",
    "                time = msg.time - (time_range - time)\n",
    "#                 while(time > time_range and time < 100):\n",
    "#                     print(time)\n",
    "#                     tr.append(Message(\"note_on\", note = 0, velocity = 0, time = time_range, channel=0))\n",
    "#                     tr.append(Message(\"note_off\", note = 0, velocity = 0, time = 0, channel=0))\n",
    "#                     time -= time_range\n",
    "                time -= msg.time\n",
    "                \n",
    "            notes.append(msg.note)\n",
    "            time += msg.time\n",
    "            if (now_len >= max_len):\n",
    "                for i in last_notes:\n",
    "                    tr.append(Message(\"note_off\", note=i, velocity=velocity, time=0, channel=0))\n",
    "                break\n",
    "#         break\n",
    "    print(concat.length)\n",
    "    concat.save(savepwd + str(num) + \".mid\")\n",
    "    num += 1\n",
    "    return num"
   ]
  },
  {
   "cell_type": "code",
   "execution_count": 124,
   "metadata": {},
   "outputs": [
    {
     "name": "stdout",
     "output_type": "stream",
     "text": [
      "bluebird.mid\n",
      "0\n",
      "<meta message set_tempo tempo=400000 time=0>\n",
      "<meta message key_signature key='A' time=0>\n",
      "note_on channel=0 note=61 velocity=64 time=240\n",
      "note_on channel=0 note=66 velocity=64 time=240\n",
      "note_on channel=0 note=68 velocity=64 time=240\n",
      "note_on channel=0 note=61 velocity=64 time=240\n",
      "note_on channel=0 note=61 velocity=64 time=240\n",
      "note_on channel=0 note=68 velocity=64 time=240\n",
      "note_on channel=0 note=61 velocity=64 time=240\n",
      "note_on channel=0 note=66 velocity=64 time=240\n",
      "note_on channel=0 note=57 velocity=64 time=240\n",
      "note_on channel=0 note=66 velocity=64 time=240\n",
      "note_on channel=0 note=64 velocity=64 time=240\n",
      "note_on channel=0 note=64 velocity=64 time=240\n",
      "note_on channel=0 note=73 velocity=64 time=240\n",
      "note_on channel=0 note=61 velocity=64 time=240\n",
      "note_on channel=0 note=66 velocity=64 time=240\n",
      "note_on channel=0 note=61 velocity=64 time=240\n",
      "note_on channel=0 note=69 velocity=64 time=240\n",
      "note_on channel=0 note=68 velocity=64 time=240\n",
      "note_on channel=0 note=68 velocity=64 time=240\n",
      "note_on channel=0 note=71 velocity=64 time=240\n",
      "note_on channel=0 note=64 velocity=64 time=240\n",
      "note_on channel=0 note=59 velocity=64 time=240\n",
      "note_on channel=0 note=61 velocity=64 time=240\n",
      "note_on channel=0 note=66 velocity=64 time=240\n",
      "note_on channel=0 note=68 velocity=64 time=240\n",
      "note_on channel=0 note=66 velocity=64 time=240\n",
      "note_on channel=0 note=62 velocity=64 time=240\n",
      "note_on channel=0 note=68 velocity=64 time=240\n",
      "note_on channel=0 note=61 velocity=64 time=240\n",
      "note_on channel=0 note=61 velocity=64 time=240\n",
      "note_on channel=0 note=66 velocity=64 time=240\n",
      "note_on channel=0 note=64 velocity=64 time=240\n",
      "note_on channel=0 note=64 velocity=64 time=240\n",
      "note_on channel=0 note=61 velocity=64 time=240\n",
      "note_on channel=0 note=61 velocity=64 time=240\n",
      "note_on channel=0 note=61 velocity=64 time=240\n",
      "note_on channel=0 note=68 velocity=64 time=240\n",
      "note_on channel=0 note=61 velocity=64 time=240\n",
      "note_on channel=0 note=66 velocity=64 time=240\n",
      "note_on channel=0 note=73 velocity=64 time=240\n",
      "note_on channel=0 note=71 velocity=64 time=240\n",
      "note_on channel=0 note=62 velocity=64 time=240\n",
      "note_on channel=0 note=66 velocity=64 time=240\n",
      "note_on channel=0 note=66 velocity=64 time=240\n",
      "note_on channel=0 note=64 velocity=64 time=240\n",
      "note_on channel=0 note=64 velocity=64 time=240\n",
      "note_on channel=0 note=66 velocity=64 time=240\n",
      "note_on channel=0 note=66 velocity=64 time=240\n",
      "note_on channel=0 note=64 velocity=64 time=240\n",
      "note_on channel=0 note=64 velocity=64 time=240\n",
      "note_on channel=0 note=66 velocity=64 time=240\n",
      "note_on channel=0 note=73 velocity=64 time=240\n",
      "note_on channel=0 note=66 velocity=64 time=240\n",
      "note_on channel=0 note=64 velocity=64 time=240\n",
      "note_on channel=0 note=64 velocity=64 time=240\n",
      "note_on channel=0 note=66 velocity=64 time=240\n",
      "note_on channel=0 note=71 velocity=64 time=240\n",
      "note_on channel=0 note=68 velocity=64 time=240\n",
      "note_on channel=0 note=69 velocity=64 time=240\n",
      "note_on channel=0 note=38 velocity=64 time=240\n",
      "note_on channel=0 note=50 velocity=64 time=240\n",
      "note_on channel=0 note=37 velocity=64 time=240\n",
      "note_on channel=0 note=49 velocity=64 time=240\n",
      "note_on channel=0 note=42 velocity=64 time=240\n",
      "note_on channel=0 note=30 velocity=64 time=240\n",
      "note_on channel=0 note=35 velocity=64 time=240\n",
      "note_on channel=0 note=47 velocity=64 time=240\n",
      "note_on channel=0 note=38 velocity=64 time=240\n",
      "note_on channel=0 note=38 velocity=64 time=240\n",
      "note_on channel=0 note=38 velocity=64 time=240\n",
      "note_on channel=0 note=38 velocity=64 time=240\n",
      "14.199999999999982\n"
     ]
    }
   ],
   "source": [
    "i = 0;\n",
    "for num, sample in enumerate(music):\n",
    "    if (num > 0):\n",
    "        break\n",
    "    print(sample)\n",
    "    print(i)\n",
    "    i = convert(pwd + sample, i, save_pwd)"
   ]
  },
  {
   "cell_type": "code",
   "execution_count": 125,
   "metadata": {},
   "outputs": [
    {
     "name": "stdout",
     "output_type": "stream",
     "text": [
      "bluebird.mid\n",
      "<meta message time_signature numerator=4 denominator=4 clocks_per_click=24 notated_32nd_notes_per_beat=8 time=0>\n",
      "<meta message set_tempo tempo=476190 time=0>\n",
      "<meta message key_signature key='A' time=0>\n",
      "<meta message end_of_track time=0>\n",
      "<meta message sequencer_specific data=(67, 0, 1, 0) time=0>\n",
      "<meta message track_name name='R.H' time=0>\n",
      "note_on channel=0 note=71 velocity=64 time=1920\n",
      "note_on channel=0 note=64 velocity=64 time=0\n",
      "note_on channel=0 note=61 velocity=64 time=0\n",
      "note_on channel=0 note=61 velocity=0 time=1920\n",
      "note_on channel=0 note=64 velocity=0 time=0\n",
      "note_on channel=0 note=71 velocity=0 time=0\n",
      "note_on channel=0 note=71 velocity=64 time=0\n",
      "note_on channel=0 note=66 velocity=64 time=0\n",
      "note_on channel=0 note=61 velocity=64 time=0\n",
      "note_on channel=0 note=61 velocity=0 time=1920\n",
      "note_on channel=0 note=66 velocity=0 time=0\n",
      "note_on channel=0 note=71 velocity=0 time=0\n",
      "note_on channel=0 note=62 velocity=64 time=0\n",
      "note_on channel=0 note=67 velocity=64 time=0\n",
      "note_on channel=0 note=71 velocity=64 time=0\n",
      "note_on channel=0 note=71 velocity=0 time=240\n",
      "note_on channel=0 note=67 velocity=0 time=0\n",
      "note_on channel=0 note=62 velocity=0 time=0\n",
      "note_on channel=0 note=61 velocity=64 time=0\n",
      "note_on channel=0 note=64 velocity=64 time=0\n",
      "note_on channel=0 note=69 velocity=64 time=0\n",
      "note_on channel=0 note=71 velocity=64 time=0\n",
      "note_on channel=0 note=71 velocity=0 time=240\n",
      "note_on channel=0 note=69 velocity=0 time=0\n",
      "note_on channel=0 note=64 velocity=0 time=0\n",
      "note_on channel=0 note=61 velocity=0 time=0\n",
      "note_on channel=0 note=74 velocity=64 time=480\n",
      "note_on channel=0 note=76 velocity=64 time=0\n",
      "note_on channel=0 note=83 velocity=64 time=0\n",
      "note_on channel=0 note=81 velocity=64 time=0\n",
      "note_on channel=0 note=81 velocity=0 time=960\n",
      "note_on channel=0 note=83 velocity=0 time=0\n",
      "note_on channel=0 note=76 velocity=0 time=0\n",
      "note_on channel=0 note=74 velocity=0 time=0\n",
      "note_on channel=0 note=79 velocity=64 time=0\n",
      "note_on channel=0 note=86 velocity=64 time=0\n",
      "note_on channel=0 note=91 velocity=64 time=0\n",
      "note_on channel=0 note=91 velocity=0 time=240\n",
      "note_on channel=0 note=86 velocity=0 time=0\n",
      "note_on channel=0 note=79 velocity=0 time=0\n",
      "note_on channel=0 note=93 velocity=64 time=0\n",
      "note_on channel=0 note=81 velocity=64 time=0\n",
      "note_on channel=0 note=88 velocity=64 time=0\n",
      "note_on channel=0 note=88 velocity=0 time=240\n",
      "note_on channel=0 note=81 velocity=0 time=0\n",
      "note_on channel=0 note=93 velocity=0 time=0\n",
      "note_on channel=0 note=79 velocity=64 time=0\n",
      "note_on channel=0 note=86 velocity=64 time=0\n",
      "note_on channel=0 note=91 velocity=64 time=0\n",
      "note_on channel=0 note=91 velocity=0 time=240\n",
      "note_on channel=0 note=86 velocity=0 time=0\n",
      "note_on channel=0 note=79 velocity=0 time=0\n",
      "note_on channel=0 note=81 velocity=64 time=0\n",
      "note_on channel=0 note=88 velocity=64 time=0\n",
      "note_on channel=0 note=93 velocity=64 time=0\n",
      "note_on channel=0 note=93 velocity=0 time=240\n",
      "note_on channel=0 note=88 velocity=0 time=0\n",
      "note_on channel=0 note=81 velocity=0 time=0\n",
      "note_on channel=0 note=79 velocity=64 time=240\n",
      "note_on channel=0 note=71 velocity=64 time=0\n",
      "note_on channel=0 note=67 velocity=64 time=0\n",
      "note_on channel=0 note=74 velocity=64 time=0\n",
      "note_on channel=0 note=74 velocity=0 time=240\n",
      "note_on channel=0 note=67 velocity=0 time=0\n",
      "note_on channel=0 note=71 velocity=0 time=0\n",
      "note_on channel=0 note=79 velocity=0 time=0\n",
      "note_on channel=0 note=81 velocity=64 time=0\n",
      "note_on channel=0 note=76 velocity=64 time=0\n",
      "note_on channel=0 note=73 velocity=64 time=0\n",
      "note_on channel=0 note=69 velocity=64 time=0\n",
      "note_on channel=0 note=69 velocity=0 time=480\n",
      "note_on channel=0 note=73 velocity=0 time=0\n",
      "note_on channel=0 note=76 velocity=0 time=0\n",
      "note_on channel=0 note=81 velocity=0 time=0\n",
      "note_on channel=0 note=66 velocity=64 time=240\n",
      "note_on channel=0 note=57 velocity=64 time=0\n",
      "note_on channel=0 note=61 velocity=64 time=0\n",
      "note_on channel=0 note=61 velocity=0 time=240\n",
      "note_on channel=0 note=57 velocity=0 time=0\n",
      "note_on channel=0 note=66 velocity=0 time=0\n",
      "note_on channel=0 note=61 velocity=64 time=480\n",
      "note_on channel=0 note=57 velocity=64 time=0\n",
      "note_on channel=0 note=66 velocity=64 time=0\n",
      "note_on channel=0 note=66 velocity=0 time=912\n",
      "note_on channel=0 note=57 velocity=0 time=0\n",
      "note_on channel=0 note=61 velocity=0 time=0\n",
      "note_on channel=0 note=66 velocity=64 time=288\n",
      "note_on channel=0 note=57 velocity=64 time=0\n",
      "note_on channel=0 note=61 velocity=64 time=0\n",
      "note_on channel=0 note=61 velocity=0 time=240\n",
      "note_on channel=0 note=57 velocity=0 time=0\n",
      "note_on channel=0 note=66 velocity=0 time=0\n",
      "note_on channel=0 note=57 velocity=64 time=480\n",
      "note_on channel=0 note=61 velocity=64 time=0\n",
      "note_on channel=0 note=66 velocity=64 time=0\n",
      "note_on channel=0 note=66 velocity=0 time=920\n",
      "note_on channel=0 note=61 velocity=0 time=0\n",
      "note_on channel=0 note=57 velocity=0 time=0\n",
      "note_on channel=0 note=61 velocity=64 time=280\n",
      "note_on channel=0 note=64 velocity=64 time=0\n",
      "note_on channel=0 note=69 velocity=64 time=0\n",
      "note_on channel=0 note=69 velocity=0 time=240\n",
      "note_on channel=0 note=64 velocity=0 time=0\n",
      "note_on channel=0 note=61 velocity=0 time=0\n",
      "note_on channel=0 note=61 velocity=64 time=480\n",
      "note_on channel=0 note=64 velocity=64 time=0\n",
      "note_on channel=0 note=69 velocity=64 time=0\n",
      "note_on channel=0 note=69 velocity=0 time=912\n",
      "note_on channel=0 note=64 velocity=0 time=0\n",
      "note_on channel=0 note=61 velocity=0 time=0\n",
      "note_on channel=0 note=61 velocity=64 time=288\n",
      "note_on channel=0 note=64 velocity=64 time=0\n",
      "note_on channel=0 note=69 velocity=64 time=0\n",
      "note_on channel=0 note=69 velocity=0 time=240\n",
      "note_on channel=0 note=64 velocity=0 time=0\n",
      "note_on channel=0 note=61 velocity=0 time=0\n",
      "note_on channel=0 note=73 velocity=64 time=240\n",
      "note_on channel=0 note=64 velocity=64 time=240\n",
      "note_on channel=0 note=61 velocity=64 time=0\n",
      "note_on channel=0 note=69 velocity=64 time=0\n",
      "note_on channel=0 note=73 velocity=0 time=240\n",
      "note_on channel=0 note=73 velocity=64 time=0\n",
      "note_on channel=0 note=73 velocity=0 time=240\n",
      "note_on channel=0 note=71 velocity=64 time=0\n",
      "note_on channel=0 note=71 velocity=0 time=240\n",
      "note_on channel=0 note=73 velocity=64 time=0\n",
      "note_on channel=0 note=69 velocity=0 time=192\n",
      "note_on channel=0 note=61 velocity=0 time=0\n",
      "note_on channel=0 note=64 velocity=0 time=0\n",
      "note_on channel=0 note=73 velocity=0 time=48\n",
      "note_on channel=0 note=71 velocity=64 time=0\n",
      "note_on channel=0 note=71 velocity=0 time=240\n",
      "note_on channel=0 note=61 velocity=64 time=0\n",
      "note_on channel=0 note=66 velocity=64 time=0\n",
      "note_on channel=0 note=69 velocity=64 time=0\n",
      "note_on channel=0 note=69 velocity=0 time=240\n",
      "note_on channel=0 note=66 velocity=0 time=0\n",
      "note_on channel=0 note=61 velocity=0 time=0\n",
      "note_on channel=0 note=69 velocity=64 time=240\n",
      "note_on channel=0 note=61 velocity=64 time=240\n",
      "note_on channel=0 note=57 velocity=64 time=0\n",
      "note_on channel=0 note=66 velocity=64 time=0\n",
      "note_on channel=0 note=66 velocity=0 time=920\n",
      "note_on channel=0 note=57 velocity=0 time=0\n",
      "note_on channel=0 note=61 velocity=0 time=0\n",
      "note_on channel=0 note=69 velocity=0 time=0\n",
      "note_on channel=0 note=66 velocity=64 time=280\n",
      "note_on channel=0 note=61 velocity=64 time=0\n",
      "note_on channel=0 note=57 velocity=64 time=0\n",
      "note_on channel=0 note=57 velocity=0 time=240\n",
      "note_on channel=0 note=61 velocity=0 time=0\n",
      "note_on channel=0 note=66 velocity=0 time=0\n",
      "note_on channel=0 note=73 velocity=64 time=240\n",
      "note_on channel=0 note=61 velocity=64 time=240\n",
      "note_on channel=0 note=66 velocity=64 time=0\n",
      "note_on channel=0 note=69 velocity=64 time=0\n",
      "note_on channel=0 note=73 velocity=0 time=240\n",
      "note_on channel=0 note=73 velocity=64 time=0\n",
      "note_on channel=0 note=73 velocity=0 time=240\n",
      "note_on channel=0 note=71 velocity=64 time=0\n",
      "note_on channel=0 note=71 velocity=0 time=240\n",
      "note_on channel=0 note=73 velocity=64 time=0\n",
      "note_on channel=0 note=69 velocity=0 time=184\n",
      "note_on channel=0 note=66 velocity=0 time=0\n",
      "note_on channel=0 note=61 velocity=0 time=0\n",
      "note_on channel=0 note=73 velocity=0 time=56\n",
      "note_on channel=0 note=71 velocity=64 time=0\n",
      "note_on channel=0 note=71 velocity=0 time=240\n",
      "note_on channel=0 note=61 velocity=64 time=0\n",
      "note_on channel=0 note=64 velocity=64 time=0\n",
      "note_on channel=0 note=69 velocity=64 time=0\n",
      "note_on channel=0 note=69 velocity=0 time=240\n",
      "note_on channel=0 note=64 velocity=0 time=0\n",
      "note_on channel=0 note=61 velocity=0 time=0\n",
      "note_on channel=0 note=61 velocity=64 time=480\n",
      "note_on channel=0 note=64 velocity=64 time=0\n",
      "note_on channel=0 note=69 velocity=64 time=0\n",
      "note_on channel=0 note=69 velocity=0 time=928\n",
      "note_on channel=0 note=64 velocity=0 time=0\n",
      "note_on channel=0 note=61 velocity=0 time=0\n",
      "note_on channel=0 note=61 velocity=64 time=272\n",
      "note_on channel=0 note=64 velocity=64 time=0\n",
      "note_on channel=0 note=69 velocity=64 time=0\n",
      "note_on channel=0 note=69 velocity=0 time=240\n",
      "note_on channel=0 note=64 velocity=0 time=0\n",
      "note_on channel=0 note=61 velocity=0 time=0\n",
      "note_on channel=0 note=73 velocity=64 time=240\n",
      "note_on channel=0 note=61 velocity=64 time=240\n",
      "note_on channel=0 note=69 velocity=64 time=0\n",
      "note_on channel=0 note=64 velocity=64 time=0\n",
      "note_on channel=0 note=73 velocity=0 time=240\n",
      "note_on channel=0 note=73 velocity=64 time=0\n",
      "note_on channel=0 note=73 velocity=0 time=240\n",
      "note_on channel=0 note=71 velocity=64 time=0\n",
      "note_on channel=0 note=71 velocity=0 time=240\n",
      "note_on channel=0 note=73 velocity=64 time=0\n",
      "note_on channel=0 note=64 velocity=0 time=176\n",
      "note_on channel=0 note=69 velocity=0 time=0\n",
      "note_on channel=0 note=61 velocity=0 time=0\n",
      "note_on channel=0 note=73 velocity=0 time=64\n",
      "note_on channel=0 note=71 velocity=64 time=0\n",
      "note_on channel=0 note=71 velocity=0 time=240\n",
      "note_on channel=0 note=66 velocity=64 time=0\n",
      "note_on channel=0 note=69 velocity=64 time=0\n",
      "note_on channel=0 note=61 velocity=64 time=0\n",
      "note_on channel=0 note=61 velocity=0 time=240\n",
      "note_on channel=0 note=69 velocity=0 time=0\n",
      "note_on channel=0 note=66 velocity=0 time=0\n",
      "note_on channel=0 note=69 velocity=64 time=240\n",
      "note_on channel=0 note=69 velocity=0 time=240\n",
      "note_on channel=0 note=66 velocity=64 time=0\n",
      "note_on channel=0 note=61 velocity=64 time=0\n",
      "note_on channel=0 note=57 velocity=64 time=0\n",
      "note_on channel=0 note=57 velocity=0 time=936\n",
      "note_on channel=0 note=61 velocity=0 time=0\n",
      "note_on channel=0 note=66 velocity=0 time=0\n",
      "note_on channel=0 note=66 velocity=64 time=264\n",
      "note_on channel=0 note=61 velocity=64 time=0\n",
      "note_on channel=0 note=57 velocity=64 time=0\n",
      "note_on channel=0 note=57 velocity=0 time=240\n",
      "note_on channel=0 note=61 velocity=0 time=0\n",
      "note_on channel=0 note=66 velocity=0 time=0\n",
      "note_on channel=0 note=73 velocity=64 time=240\n",
      "note_on channel=0 note=61 velocity=64 time=240\n",
      "note_on channel=0 note=66 velocity=64 time=0\n",
      "note_on channel=0 note=69 velocity=64 time=0\n",
      "note_on channel=0 note=73 velocity=0 time=240\n",
      "note_on channel=0 note=73 velocity=64 time=0\n",
      "note_on channel=0 note=73 velocity=0 time=240\n",
      "note_on channel=0 note=71 velocity=64 time=0\n",
      "note_on channel=0 note=71 velocity=0 time=240\n",
      "note_on channel=0 note=73 velocity=64 time=0\n",
      "note_on channel=0 note=69 velocity=0 time=184\n",
      "note_on channel=0 note=66 velocity=0 time=0\n",
      "note_on channel=0 note=61 velocity=0 time=0\n",
      "note_on channel=0 note=73 velocity=0 time=56\n",
      "note_on channel=0 note=71 velocity=64 time=0\n",
      "note_on channel=0 note=71 velocity=0 time=240\n",
      "note_on channel=0 note=61 velocity=64 time=0\n",
      "note_on channel=0 note=64 velocity=64 time=0\n",
      "note_on channel=0 note=69 velocity=64 time=0\n",
      "note_on channel=0 note=69 velocity=0 time=240\n",
      "note_on channel=0 note=64 velocity=0 time=0\n",
      "note_on channel=0 note=61 velocity=0 time=0\n",
      "note_on channel=0 note=69 velocity=64 time=240\n",
      "note_on channel=0 note=61 velocity=64 time=240\n",
      "note_on channel=0 note=64 velocity=64 time=0\n",
      "note_on channel=0 note=64 velocity=0 time=928\n",
      "note_on channel=0 note=61 velocity=0 time=0\n",
      "note_on channel=0 note=69 velocity=0 time=0\n",
      "note_on channel=0 note=61 velocity=64 time=272\n",
      "note_on channel=0 note=61 velocity=0 time=240\n",
      "note_on channel=0 note=64 velocity=64 time=0\n",
      "note_on channel=0 note=64 velocity=0 time=240\n",
      "note_on channel=0 note=61 velocity=64 time=0\n",
      "note_on channel=0 note=64 velocity=64 time=0\n",
      "note_on channel=0 note=71 velocity=64 time=0\n",
      "note_on channel=0 note=71 velocity=0 time=240\n",
      "note_on channel=0 note=64 velocity=0 time=0\n",
      "note_on channel=0 note=61 velocity=0 time=0\n",
      "note_on channel=0 note=64 velocity=64 time=240\n",
      "note_on channel=0 note=69 velocity=64 time=0\n",
      "note_on channel=0 note=73 velocity=64 time=0\n",
      "note_on channel=0 note=73 velocity=0 time=240\n",
      "note_on channel=0 note=69 velocity=0 time=0\n",
      "note_on channel=0 note=64 velocity=0 time=0\n",
      "note_on channel=0 note=73 velocity=64 time=0\n",
      "note_on channel=0 note=64 velocity=64 time=0\n",
      "note_on channel=0 note=69 velocity=64 time=0\n",
      "note_on channel=0 note=69 velocity=0 time=240\n",
      "note_on channel=0 note=64 velocity=0 time=0\n",
      "note_on channel=0 note=73 velocity=0 time=0\n",
      "note_on channel=0 note=73 velocity=64 time=0\n",
      "note_on channel=0 note=64 velocity=64 time=0\n",
      "note_on channel=0 note=69 velocity=64 time=0\n",
      "note_on channel=0 note=69 velocity=0 time=240\n",
      "note_on channel=0 note=64 velocity=0 time=0\n",
      "note_on channel=0 note=73 velocity=0 time=0\n",
      "note_on channel=0 note=66 velocity=64 time=0\n",
      "note_on channel=0 note=69 velocity=64 time=0\n",
      "note_on channel=0 note=74 velocity=64 time=0\n",
      "note_on channel=0 note=74 velocity=0 time=480\n",
      "note_on channel=0 note=69 velocity=0 time=0\n",
      "note_on channel=0 note=66 velocity=0 time=0\n",
      "note_on channel=0 note=73 velocity=64 time=0\n",
      "note_on channel=0 note=73 velocity=0 time=480\n",
      "note_on channel=0 note=71 velocity=64 time=0\n",
      "note_on channel=0 note=71 velocity=0 time=240\n",
      "note_on channel=0 note=69 velocity=64 time=0\n",
      "note_on channel=0 note=78 velocity=64 time=240\n",
      "note_on channel=0 note=74 velocity=64 time=0\n",
      "note_on channel=0 note=69 velocity=0 time=240\n",
      "note_on channel=0 note=71 velocity=64 time=0\n",
      "note_on channel=0 note=71 velocity=0 time=240\n",
      "note_on channel=0 note=74 velocity=0 time=0\n",
      "note_on channel=0 note=78 velocity=0 time=0\n",
      "note_on channel=0 note=76 velocity=64 time=0\n",
      "note_on channel=0 note=80 velocity=64 time=0\n",
      "note_on channel=0 note=80 velocity=0 time=960\n",
      "note_on channel=0 note=76 velocity=0 time=0\n",
      "note_on channel=0 note=80 velocity=64 time=0\n",
      "note_on channel=0 note=83 velocity=64 time=0\n",
      "note_on channel=0 note=83 velocity=0 time=240\n",
      "note_on channel=0 note=80 velocity=0 time=0\n",
      "note_on channel=0 note=64 velocity=64 time=0\n",
      "note_on channel=0 note=64 velocity=0 time=240\n",
      "note_on channel=0 note=64 velocity=64 time=0\n",
      "note_on channel=0 note=64 velocity=0 time=240\n",
      "note_on channel=0 note=64 velocity=64 time=0\n",
      "note_on channel=0 note=64 velocity=0 time=240\n",
      "note_on channel=0 note=64 velocity=64 time=0\n",
      "note_on channel=0 note=68 velocity=64 time=0\n",
      "note_on channel=0 note=73 velocity=64 time=0\n",
      "note_on channel=0 note=76 velocity=64 time=0\n",
      "note_on channel=0 note=76 velocity=0 time=480\n",
      "note_on channel=0 note=73 velocity=0 time=0\n",
      "note_on channel=0 note=68 velocity=0 time=0\n",
      "note_on channel=0 note=64 velocity=0 time=0\n",
      "note_on channel=0 note=74 velocity=64 time=0\n",
      "note_on channel=0 note=74 velocity=0 time=480\n",
      "note_on channel=0 note=73 velocity=64 time=0\n",
      "note_on channel=0 note=73 velocity=0 time=240\n",
      "note_on channel=0 note=71 velocity=64 time=0\n",
      "note_on channel=0 note=71 velocity=0 time=240\n",
      "note_on channel=0 note=83 velocity=64 time=0\n",
      "note_on channel=0 note=80 velocity=64 time=0\n",
      "note_on channel=0 note=80 velocity=0 time=240\n",
      "note_on channel=0 note=83 velocity=0 time=0\n",
      "note_on channel=0 note=71 velocity=64 time=0\n",
      "note_on channel=0 note=71 velocity=0 time=240\n",
      "note_on channel=0 note=70 velocity=64 time=0\n",
      "note_on channel=0 note=78 velocity=64 time=0\n",
      "note_on channel=0 note=82 velocity=64 time=0\n",
      "note_on channel=0 note=82 velocity=0 time=952\n",
      "note_on channel=0 note=78 velocity=0 time=0\n",
      "note_on channel=0 note=70 velocity=0 time=0\n",
      "note_on channel=0 note=80 velocity=64 time=8\n",
      "note_on channel=0 note=83 velocity=64 time=0\n",
      "note_on channel=0 note=83 velocity=0 time=480\n",
      "note_on channel=0 note=80 velocity=0 time=0\n",
      "note_on channel=0 note=82 velocity=64 time=0\n",
      "note_on channel=0 note=85 velocity=64 time=0\n",
      "note_on channel=0 note=85 velocity=0 time=480\n",
      "note_on channel=0 note=82 velocity=0 time=0\n",
      "note_on channel=0 note=66 velocity=64 time=0\n",
      "note_on channel=0 note=62 velocity=64 time=0\n",
      "note_on channel=0 note=71 velocity=64 time=0\n",
      "note_on channel=0 note=71 velocity=0 time=480\n",
      "note_on channel=0 note=62 velocity=0 time=0\n",
      "note_on channel=0 note=66 velocity=0 time=0\n",
      "note_on channel=0 note=73 velocity=64 time=0\n",
      "note_on channel=0 note=73 velocity=0 time=240\n",
      "note_on channel=0 note=74 velocity=64 time=0\n",
      "note_on channel=0 note=74 velocity=0 time=480\n",
      "note_on channel=0 note=71 velocity=64 time=0\n",
      "note_on channel=0 note=62 velocity=64 time=240\n",
      "note_on channel=0 note=66 velocity=64 time=0\n",
      "note_on channel=0 note=66 velocity=0 time=240\n",
      "note_on channel=0 note=62 velocity=0 time=0\n",
      "note_on channel=0 note=71 velocity=0 time=0\n",
      "note_on channel=0 note=71 velocity=64 time=0\n",
      "note_on channel=0 note=71 velocity=0 time=240\n",
      "note_on channel=0 note=68 velocity=64 time=0\n",
      "note_on channel=0 note=71 velocity=64 time=240\n",
      "note_on channel=0 note=71 velocity=0 time=240\n",
      "note_on channel=0 note=74 velocity=64 time=0\n",
      "note_on channel=0 note=74 velocity=0 time=240\n",
      "note_on channel=0 note=80 velocity=64 time=0\n",
      "note_on channel=0 note=68 velocity=0 time=224\n",
      "note_on channel=0 note=80 velocity=0 time=240\n",
      "note_on channel=0 note=68 velocity=64 time=16\n",
      "note_on channel=0 note=68 velocity=0 time=240\n",
      "note_on channel=0 note=68 velocity=64 time=0\n",
      "note_on channel=0 note=68 velocity=0 time=240\n",
      "note_on channel=0 note=69 velocity=64 time=0\n",
      "note_on channel=0 note=69 velocity=0 time=240\n",
      "note_on channel=0 note=81 velocity=64 time=240\n",
      "note_on channel=0 note=73 velocity=64 time=0\n",
      "note_on channel=0 note=76 velocity=64 time=0\n",
      "note_on channel=0 note=76 velocity=0 time=240\n",
      "note_on channel=0 note=73 velocity=0 time=0\n",
      "note_on channel=0 note=81 velocity=0 time=0\n",
      "note_on channel=0 note=73 velocity=64 time=0\n",
      "note_on channel=0 note=73 velocity=0 time=240\n",
      "note_on channel=0 note=76 velocity=64 time=0\n",
      "note_on channel=0 note=76 velocity=0 time=240\n",
      "note_on channel=0 note=71 velocity=64 time=0\n",
      "note_on channel=0 note=64 velocity=64 time=0\n",
      "note_on channel=0 note=61 velocity=64 time=0\n",
      "note_on channel=0 note=61 velocity=0 time=480\n",
      "note_on channel=0 note=64 velocity=0 time=0\n",
      "note_on channel=0 note=71 velocity=0 time=0\n",
      "note_on channel=0 note=69 velocity=64 time=0\n",
      "note_on channel=0 note=69 velocity=0 time=240\n",
      "note_on channel=0 note=62 velocity=64 time=0\n",
      "note_on channel=0 note=69 velocity=64 time=240\n",
      "note_on channel=0 note=64 velocity=64 time=0\n",
      "note_on channel=0 note=64 velocity=0 time=240\n",
      "note_on channel=0 note=69 velocity=0 time=0\n",
      "note_on channel=0 note=62 velocity=0 time=0\n",
      "note_on channel=0 note=61 velocity=64 time=0\n",
      "note_on channel=0 note=61 velocity=0 time=456\n",
      "note_on channel=0 note=57 velocity=64 time=24\n",
      "note_on channel=0 note=57 velocity=0 time=456\n",
      "note_on channel=0 note=73 velocity=64 time=24\n",
      "note_on channel=0 note=64 velocity=64 time=0\n",
      "note_on channel=0 note=64 velocity=0 time=240\n",
      "note_on channel=0 note=73 velocity=0 time=0\n",
      "note_on channel=0 note=71 velocity=64 time=0\n",
      "note_on channel=0 note=62 velocity=64 time=0\n",
      "note_on channel=0 note=62 velocity=0 time=240\n",
      "note_on channel=0 note=71 velocity=0 time=0\n",
      "note_on channel=0 note=69 velocity=64 time=0\n",
      "note_on channel=0 note=61 velocity=64 time=0\n",
      "note_on channel=0 note=61 velocity=0 time=240\n",
      "note_on channel=0 note=69 velocity=0 time=0\n",
      "note_on channel=0 note=61 velocity=64 time=0\n",
      "note_on channel=0 note=66 velocity=64 time=0\n",
      "note_on channel=0 note=71 velocity=64 time=0\n",
      "note_on channel=0 note=71 velocity=0 time=240\n",
      "note_on channel=0 note=66 velocity=0 time=0\n",
      "note_on channel=0 note=61 velocity=0 time=0\n",
      "note_on channel=0 note=73 velocity=64 time=0\n",
      "note_on channel=0 note=73 velocity=0 time=240\n",
      "note_on channel=0 note=64 velocity=64 time=240\n",
      "note_on channel=0 note=69 velocity=64 time=0\n",
      "note_on channel=0 note=73 velocity=64 time=0\n",
      "note_on channel=0 note=73 velocity=0 time=480\n",
      "note_on channel=0 note=69 velocity=0 time=0\n",
      "note_on channel=0 note=64 velocity=0 time=0\n",
      "note_on channel=0 note=73 velocity=64 time=0\n",
      "note_on channel=0 note=64 velocity=64 time=0\n",
      "note_on channel=0 note=64 velocity=0 time=240\n",
      "note_on channel=0 note=73 velocity=0 time=0\n",
      "note_on channel=0 note=71 velocity=64 time=0\n",
      "note_on channel=0 note=62 velocity=64 time=0\n",
      "note_on channel=0 note=62 velocity=0 time=240\n",
      "note_on channel=0 note=71 velocity=0 time=0\n",
      "note_on channel=0 note=69 velocity=64 time=0\n",
      "note_on channel=0 note=61 velocity=64 time=0\n",
      "note_on channel=0 note=61 velocity=0 time=240\n",
      "note_on channel=0 note=69 velocity=0 time=0\n",
      "note_on channel=0 note=71 velocity=64 time=0\n",
      "note_on channel=0 note=64 velocity=64 time=0\n",
      "note_on channel=0 note=68 velocity=64 time=0\n",
      "note_on channel=0 note=68 velocity=0 time=240\n",
      "note_on channel=0 note=64 velocity=0 time=0\n",
      "note_on channel=0 note=71 velocity=0 time=0\n",
      "note_on channel=0 note=73 velocity=64 time=0\n",
      "note_on channel=0 note=73 velocity=0 time=240\n",
      "note_on channel=0 note=64 velocity=64 time=240\n",
      "note_on channel=0 note=68 velocity=64 time=0\n",
      "note_on channel=0 note=73 velocity=64 time=0\n",
      "note_on channel=0 note=73 velocity=0 time=480\n",
      "note_on channel=0 note=68 velocity=0 time=0\n",
      "note_on channel=0 note=64 velocity=0 time=0\n",
      "note_on channel=0 note=73 velocity=64 time=0\n",
      "note_on channel=0 note=64 velocity=64 time=0\n",
      "note_on channel=0 note=64 velocity=0 time=240\n",
      "note_on channel=0 note=73 velocity=0 time=0\n",
      "note_on channel=0 note=71 velocity=64 time=0\n",
      "note_on channel=0 note=62 velocity=64 time=0\n",
      "note_on channel=0 note=62 velocity=0 time=240\n",
      "note_on channel=0 note=71 velocity=0 time=0\n",
      "note_on channel=0 note=69 velocity=64 time=0\n",
      "note_on channel=0 note=61 velocity=64 time=0\n",
      "note_on channel=0 note=61 velocity=0 time=240\n",
      "note_on channel=0 note=69 velocity=0 time=0\n",
      "note_on channel=0 note=64 velocity=64 time=0\n",
      "note_on channel=0 note=71 velocity=64 time=0\n",
      "note_on channel=0 note=69 velocity=64 time=0\n",
      "note_on channel=0 note=69 velocity=0 time=240\n",
      "note_on channel=0 note=71 velocity=0 time=0\n",
      "note_on channel=0 note=64 velocity=0 time=0\n",
      "note_on channel=0 note=73 velocity=64 time=0\n",
      "note_on channel=0 note=73 velocity=0 time=240\n",
      "note_on channel=0 note=64 velocity=64 time=240\n",
      "note_on channel=0 note=69 velocity=64 time=0\n",
      "note_on channel=0 note=73 velocity=64 time=0\n",
      "note_on channel=0 note=73 velocity=0 time=1160\n",
      "note_on channel=0 note=69 velocity=0 time=0\n",
      "note_on channel=0 note=64 velocity=0 time=0\n",
      "note_on channel=0 note=76 velocity=64 time=280\n",
      "note_on channel=0 note=81 velocity=64 time=0\n",
      "note_on channel=0 note=85 velocity=64 time=0\n",
      "note_on channel=0 note=88 velocity=64 time=0\n",
      "note_on channel=0 note=88 velocity=0 time=240\n",
      "note_on channel=0 note=85 velocity=0 time=0\n",
      "note_on channel=0 note=81 velocity=0 time=0\n",
      "note_on channel=0 note=76 velocity=0 time=0\n",
      "note_on channel=0 note=86 velocity=64 time=0\n",
      "note_on channel=0 note=86 velocity=0 time=240\n",
      "note_on channel=0 note=85 velocity=64 time=0\n",
      "note_on channel=0 note=85 velocity=0 time=240\n",
      "note_on channel=0 note=64 velocity=64 time=240\n",
      "note_on channel=0 note=73 velocity=64 time=0\n",
      "note_on channel=0 note=61 velocity=64 time=0\n",
      "note_on channel=0 note=61 velocity=0 time=240\n",
      "note_on channel=0 note=73 velocity=0 time=0\n",
      "note_on channel=0 note=64 velocity=0 time=0\n",
      "note_on channel=0 note=64 velocity=64 time=0\n",
      "note_on channel=0 note=71 velocity=64 time=0\n",
      "note_on channel=0 note=61 velocity=64 time=0\n",
      "note_on channel=0 note=61 velocity=0 time=240\n",
      "note_on channel=0 note=71 velocity=0 time=0\n",
      "note_on channel=0 note=64 velocity=0 time=0\n",
      "note_on channel=0 note=69 velocity=64 time=0\n",
      "note_on channel=0 note=69 velocity=0 time=240\n",
      "note_on channel=0 note=61 velocity=64 time=0\n",
      "note_on channel=0 note=66 velocity=64 time=0\n",
      "note_on channel=0 note=71 velocity=64 time=0\n",
      "note_on channel=0 note=71 velocity=0 time=240\n",
      "note_on channel=0 note=66 velocity=0 time=0\n",
      "note_on channel=0 note=61 velocity=0 time=0\n",
      "note_on channel=0 note=73 velocity=64 time=0\n",
      "note_on channel=0 note=73 velocity=0 time=240\n",
      "note_on channel=0 note=64 velocity=64 time=240\n",
      "note_on channel=0 note=69 velocity=64 time=0\n",
      "note_on channel=0 note=73 velocity=64 time=0\n",
      "note_on channel=0 note=73 velocity=0 time=480\n",
      "note_on channel=0 note=69 velocity=0 time=0\n",
      "note_on channel=0 note=64 velocity=0 time=0\n",
      "note_on channel=0 note=73 velocity=64 time=0\n",
      "note_on channel=0 note=64 velocity=64 time=0\n",
      "note_on channel=0 note=64 velocity=0 time=240\n",
      "note_on channel=0 note=73 velocity=0 time=0\n",
      "note_on channel=0 note=71 velocity=64 time=0\n",
      "note_on channel=0 note=62 velocity=64 time=0\n",
      "note_on channel=0 note=62 velocity=0 time=240\n",
      "note_on channel=0 note=71 velocity=0 time=0\n",
      "note_on channel=0 note=69 velocity=64 time=0\n",
      "note_on channel=0 note=61 velocity=64 time=0\n",
      "note_on channel=0 note=61 velocity=0 time=240\n",
      "note_on channel=0 note=69 velocity=0 time=0\n",
      "note_on channel=0 note=71 velocity=64 time=0\n",
      "note_on channel=0 note=64 velocity=64 time=0\n",
      "note_on channel=0 note=68 velocity=64 time=0\n",
      "note_on channel=0 note=68 velocity=0 time=240\n",
      "note_on channel=0 note=64 velocity=0 time=0\n",
      "note_on channel=0 note=71 velocity=0 time=0\n",
      "note_on channel=0 note=73 velocity=64 time=0\n",
      "note_on channel=0 note=73 velocity=0 time=240\n",
      "note_on channel=0 note=64 velocity=64 time=240\n",
      "note_on channel=0 note=68 velocity=64 time=0\n",
      "note_on channel=0 note=73 velocity=64 time=0\n",
      "note_on channel=0 note=73 velocity=0 time=480\n",
      "note_on channel=0 note=68 velocity=0 time=0\n",
      "note_on channel=0 note=64 velocity=0 time=0\n",
      "note_on channel=0 note=73 velocity=64 time=0\n",
      "note_on channel=0 note=64 velocity=64 time=0\n",
      "note_on channel=0 note=64 velocity=0 time=240\n",
      "note_on channel=0 note=73 velocity=0 time=0\n",
      "note_on channel=0 note=71 velocity=64 time=0\n",
      "note_on channel=0 note=62 velocity=64 time=0\n",
      "note_on channel=0 note=62 velocity=0 time=240\n",
      "note_on channel=0 note=71 velocity=0 time=0\n",
      "note_on channel=0 note=69 velocity=64 time=0\n",
      "note_on channel=0 note=61 velocity=64 time=0\n",
      "note_on channel=0 note=61 velocity=0 time=240\n",
      "note_on channel=0 note=69 velocity=0 time=0\n",
      "note_on channel=0 note=64 velocity=64 time=0\n",
      "note_on channel=0 note=73 velocity=64 time=0\n",
      "note_on channel=0 note=69 velocity=64 time=0\n",
      "note_on channel=0 note=69 velocity=0 time=240\n",
      "note_on channel=0 note=73 velocity=0 time=0\n",
      "note_on channel=0 note=64 velocity=0 time=0\n",
      "note_on channel=0 note=76 velocity=64 time=0\n",
      "note_on channel=0 note=76 velocity=0 time=240\n",
      "note_on channel=0 note=76 velocity=64 time=240\n",
      "note_on channel=0 note=76 velocity=0 time=240\n",
      "note_on channel=0 note=73 velocity=64 time=0\n",
      "note_on channel=0 note=69 velocity=64 time=0\n",
      "note_on channel=0 note=64 velocity=64 time=0\n",
      "note_on channel=0 note=64 velocity=0 time=944\n",
      "note_on channel=0 note=69 velocity=0 time=0\n",
      "note_on channel=0 note=73 velocity=0 time=0\n",
      "note_on channel=0 note=66 velocity=64 time=1696\n",
      "note_on channel=0 note=69 velocity=64 time=0\n",
      "note_on channel=0 note=74 velocity=64 time=0\n",
      "note_on channel=0 note=74 velocity=0 time=480\n",
      "note_on channel=0 note=69 velocity=0 time=0\n",
      "note_on channel=0 note=66 velocity=0 time=0\n",
      "note_on channel=0 note=74 velocity=64 time=0\n",
      "note_on channel=0 note=69 velocity=64 time=0\n",
      "note_on channel=0 note=66 velocity=64 time=0\n",
      "note_on channel=0 note=66 velocity=0 time=240\n",
      "note_on channel=0 note=69 velocity=0 time=0\n",
      "note_on channel=0 note=74 velocity=0 time=0\n",
      "note_on channel=0 note=74 velocity=64 time=0\n",
      "note_on channel=0 note=69 velocity=64 time=0\n",
      "note_on channel=0 note=66 velocity=64 time=0\n",
      "note_on channel=0 note=66 velocity=0 time=456\n",
      "note_on channel=0 note=69 velocity=0 time=0\n",
      "note_on channel=0 note=74 velocity=0 time=0\n",
      "note_on channel=0 note=74 velocity=64 time=24\n",
      "note_on channel=0 note=69 velocity=64 time=0\n",
      "note_on channel=0 note=66 velocity=64 time=0\n",
      "note_on channel=0 note=66 velocity=0 time=240\n",
      "note_on channel=0 note=69 velocity=0 time=0\n",
      "note_on channel=0 note=74 velocity=0 time=0\n",
      "note_on channel=0 note=74 velocity=64 time=0\n",
      "note_on channel=0 note=69 velocity=64 time=0\n",
      "note_on channel=0 note=66 velocity=64 time=0\n",
      "note_on channel=0 note=66 velocity=0 time=456\n",
      "note_on channel=0 note=69 velocity=0 time=0\n",
      "note_on channel=0 note=74 velocity=0 time=0\n",
      "note_on channel=0 note=71 velocity=64 time=24\n",
      "note_on channel=0 note=76 velocity=64 time=0\n",
      "note_on channel=0 note=68 velocity=64 time=0\n",
      "note_on channel=0 note=68 velocity=0 time=480\n",
      "note_on channel=0 note=76 velocity=0 time=0\n",
      "note_on channel=0 note=71 velocity=0 time=0\n",
      "note_on channel=0 note=56 velocity=64 time=0\n",
      "note_on channel=0 note=56 velocity=0 time=240\n",
      "note_on channel=0 note=59 velocity=64 time=0\n",
      "note_on channel=0 note=59 velocity=0 time=240\n",
      "note_on channel=0 note=64 velocity=64 time=0\n",
      "note_on channel=0 note=64 velocity=0 time=664\n",
      "note_on channel=0 note=77 velocity=64 time=296\n",
      "note_on channel=0 note=73 velocity=64 time=0\n",
      "note_on channel=0 note=68 velocity=64 time=0\n",
      "note_on channel=0 note=68 velocity=0 time=696\n",
      "note_on channel=0 note=73 velocity=0 time=0\n",
      "note_on channel=0 note=77 velocity=0 time=0\n",
      "note_on channel=0 note=73 velocity=64 time=24\n",
      "note_on channel=0 note=68 velocity=64 time=0\n",
      "note_on channel=0 note=68 velocity=0 time=240\n",
      "note_on channel=0 note=73 velocity=0 time=0\n",
      "note_on channel=0 note=73 velocity=64 time=0\n",
      "note_on channel=0 note=68 velocity=64 time=0\n",
      "note_on channel=0 note=68 velocity=0 time=240\n",
      "note_on channel=0 note=73 velocity=0 time=0\n",
      "note_on channel=0 note=71 velocity=64 time=0\n",
      "note_on channel=0 note=68 velocity=64 time=0\n",
      "note_on channel=0 note=68 velocity=0 time=240\n",
      "note_on channel=0 note=71 velocity=0 time=0\n",
      "note_on channel=0 note=68 velocity=64 time=0\n",
      "note_on channel=0 note=73 velocity=64 time=0\n",
      "note_on channel=0 note=73 velocity=0 time=240\n",
      "note_on channel=0 note=68 velocity=0 time=0\n",
      "note_on channel=0 note=71 velocity=64 time=240\n",
      "note_on channel=0 note=66 velocity=64 time=0\n",
      "note_on channel=0 note=61 velocity=64 time=0\n",
      "note_on channel=0 note=61 velocity=0 time=480\n",
      "note_on channel=0 note=66 velocity=0 time=0\n",
      "note_on channel=0 note=71 velocity=0 time=0\n",
      "note_on channel=0 note=69 velocity=64 time=0\n",
      "note_on channel=0 note=66 velocity=64 time=0\n",
      "note_on channel=0 note=61 velocity=64 time=0\n",
      "note_on channel=0 note=61 velocity=0 time=240\n",
      "note_on channel=0 note=66 velocity=0 time=0\n",
      "note_on channel=0 note=69 velocity=0 time=0\n",
      "note_on channel=0 note=73 velocity=64 time=240\n",
      "note_on channel=0 note=73 velocity=0 time=240\n",
      "note_on channel=0 note=78 velocity=64 time=0\n",
      "note_on channel=0 note=78 velocity=0 time=240\n",
      "note_on channel=0 note=81 velocity=64 time=0\n",
      "note_on channel=0 note=81 velocity=0 time=240\n",
      "note_on channel=0 note=66 velocity=64 time=240\n",
      "note_on channel=0 note=66 velocity=0 time=240\n",
      "note_on channel=0 note=71 velocity=64 time=0\n",
      "note_on channel=0 note=71 velocity=0 time=480\n",
      "note_on channel=0 note=71 velocity=64 time=0\n",
      "note_on channel=0 note=71 velocity=0 time=240\n",
      "note_on channel=0 note=71 velocity=64 time=0\n",
      "note_on channel=0 note=71 velocity=0 time=480\n",
      "note_on channel=0 note=71 velocity=64 time=0\n",
      "note_on channel=0 note=71 velocity=0 time=240\n",
      "note_on channel=0 note=73 velocity=64 time=0\n",
      "note_on channel=0 note=73 velocity=0 time=240\n",
      "note_on channel=0 note=71 velocity=64 time=0\n",
      "note_on channel=0 note=71 velocity=0 time=240\n",
      "note_on channel=0 note=66 velocity=64 time=0\n",
      "note_on channel=0 note=69 velocity=64 time=0\n",
      "note_on channel=0 note=69 velocity=0 time=936\n",
      "note_on channel=0 note=66 velocity=0 time=0\n",
      "note_on channel=0 note=81 velocity=64 time=264\n",
      "note_on channel=0 note=74 velocity=64 time=0\n",
      "note_on channel=0 note=69 velocity=64 time=0\n",
      "note_on channel=0 note=69 velocity=0 time=240\n",
      "note_on channel=0 note=74 velocity=0 time=0\n",
      "note_on channel=0 note=81 velocity=0 time=0\n",
      "note_on channel=0 note=78 velocity=64 time=0\n",
      "note_on channel=0 note=78 velocity=0 time=240\n",
      "note_on channel=0 note=81 velocity=64 time=0\n",
      "note_on channel=0 note=81 velocity=0 time=240\n",
      "note_on channel=0 note=69 velocity=64 time=0\n",
      "note_on channel=0 note=72 velocity=64 time=0\n",
      "note_on channel=0 note=81 velocity=64 time=0\n",
      "note_on channel=0 note=81 velocity=0 time=1200\n",
      "note_on channel=0 note=72 velocity=0 time=0\n",
      "note_on channel=0 note=69 velocity=0 time=0\n",
      "note_on channel=0 note=71 velocity=64 time=0\n",
      "note_on channel=0 note=83 velocity=64 time=0\n",
      "note_on channel=0 note=83 velocity=0 time=360\n",
      "note_on channel=0 note=71 velocity=0 time=0\n",
      "note_on channel=0 note=84 velocity=64 time=0\n",
      "note_on channel=0 note=72 velocity=64 time=0\n",
      "note_on channel=0 note=72 velocity=0 time=344\n",
      "note_on channel=0 note=84 velocity=0 time=0\n",
      "note_on channel=0 note=67 velocity=64 time=16\n",
      "note_on channel=0 note=72 velocity=64 time=0\n",
      "note_on channel=0 note=79 velocity=64 time=0\n",
      "note_on channel=0 note=79 velocity=0 time=920\n",
      "note_on channel=0 note=72 velocity=0 time=0\n",
      "note_on channel=0 note=67 velocity=0 time=0\n",
      "note_on channel=0 note=84 velocity=64 time=40\n",
      "note_on channel=0 note=79 velocity=64 time=0\n",
      "note_on channel=0 note=72 velocity=64 time=0\n",
      "note_on channel=0 note=72 velocity=0 time=920\n",
      "note_on channel=0 note=79 velocity=0 time=0\n",
      "note_on channel=0 note=84 velocity=0 time=0\n",
      "note_on channel=0 note=74 velocity=64 time=40\n",
      "note_on channel=0 note=86 velocity=64 time=0\n",
      "note_on channel=0 note=86 velocity=0 time=1184\n",
      "note_on channel=0 note=74 velocity=0 time=0\n",
      "note_on channel=0 note=72 velocity=64 time=16\n",
      "note_on channel=0 note=84 velocity=64 time=0\n",
      "note_on channel=0 note=84 velocity=0 time=360\n",
      "note_on channel=0 note=72 velocity=0 time=0\n",
      "note_on channel=0 note=83 velocity=64 time=0\n",
      "note_on channel=0 note=71 velocity=64 time=0\n",
      "note_on channel=0 note=71 velocity=0 time=344\n",
      "note_on channel=0 note=83 velocity=0 time=0\n",
      "note_on channel=0 note=69 velocity=64 time=16\n",
      "note_on channel=0 note=76 velocity=64 time=0\n",
      "note_on channel=0 note=81 velocity=64 time=0\n",
      "note_on channel=0 note=73 velocity=64 time=0\n",
      "note_on channel=0 note=73 velocity=0 time=920\n",
      "note_on channel=0 note=81 velocity=0 time=0\n",
      "note_on channel=0 note=76 velocity=0 time=0\n",
      "note_on channel=0 note=69 velocity=0 time=0\n",
      "note_on channel=0 note=69 velocity=64 time=280\n",
      "note_on channel=0 note=73 velocity=64 time=0\n",
      "note_on channel=0 note=64 velocity=64 time=0\n",
      "note_on channel=0 note=64 velocity=0 time=240\n",
      "note_on channel=0 note=73 velocity=0 time=0\n",
      "note_on channel=0 note=69 velocity=0 time=0\n",
      "note_on channel=0 note=68 velocity=64 time=0\n",
      "note_on channel=0 note=71 velocity=64 time=0\n",
      "note_on channel=0 note=64 velocity=64 time=0\n",
      "note_on channel=0 note=64 velocity=0 time=240\n",
      "note_on channel=0 note=71 velocity=0 time=0\n",
      "note_on channel=0 note=68 velocity=0 time=0\n",
      "note_on channel=0 note=69 velocity=64 time=0\n",
      "note_on channel=0 note=64 velocity=64 time=0\n",
      "note_on channel=0 note=64 velocity=0 time=240\n",
      "note_on channel=0 note=69 velocity=0 time=0\n",
      "note_on channel=0 note=71 velocity=64 time=0\n",
      "note_on channel=0 note=68 velocity=64 time=0\n",
      "note_on channel=0 note=68 velocity=0 time=240\n",
      "note_on channel=0 note=71 velocity=0 time=0\n",
      "note_on channel=0 note=69 velocity=64 time=0\n",
      "note_on channel=0 note=73 velocity=64 time=0\n",
      "note_on channel=0 note=73 velocity=0 time=240\n",
      "note_on channel=0 note=69 velocity=0 time=0\n",
      "note_on channel=0 note=85 velocity=64 time=720\n",
      "note_on channel=0 note=81 velocity=64 time=0\n",
      "note_on channel=0 note=81 velocity=0 time=240\n",
      "note_on channel=0 note=85 velocity=0 time=0\n",
      "note_on channel=0 note=83 velocity=64 time=0\n",
      "note_on channel=0 note=80 velocity=64 time=0\n",
      "note_on channel=0 note=80 velocity=0 time=240\n",
      "note_on channel=0 note=83 velocity=0 time=0\n",
      "note_on channel=0 note=78 velocity=64 time=0\n",
      "note_on channel=0 note=81 velocity=64 time=0\n",
      "note_on channel=0 note=81 velocity=0 time=240\n",
      "note_on channel=0 note=78 velocity=0 time=0\n",
      "note_on channel=0 note=81 velocity=64 time=0\n",
      "note_on channel=0 note=85 velocity=64 time=0\n",
      "note_on channel=0 note=85 velocity=0 time=480\n",
      "note_on channel=0 note=81 velocity=0 time=0\n",
      "note_on channel=0 note=80 velocity=64 time=0\n",
      "note_on channel=0 note=83 velocity=64 time=0\n",
      "note_on channel=0 note=83 velocity=0 time=240\n",
      "note_on channel=0 note=80 velocity=0 time=0\n",
      "note_on channel=0 note=78 velocity=64 time=0\n",
      "note_on channel=0 note=81 velocity=64 time=0\n",
      "note_on channel=0 note=81 velocity=0 time=480\n",
      "note_on channel=0 note=78 velocity=0 time=0\n",
      "note_on channel=0 note=61 velocity=64 time=0\n",
      "note_on channel=0 note=66 velocity=64 time=0\n",
      "note_on channel=0 note=69 velocity=64 time=0\n",
      "note_on channel=0 note=73 velocity=64 time=0\n",
      "note_on channel=0 note=73 velocity=0 time=240\n",
      "note_on channel=0 note=69 velocity=0 time=0\n",
      "note_on channel=0 note=66 velocity=0 time=0\n",
      "note_on channel=0 note=61 velocity=0 time=0\n",
      "note_on channel=0 note=71 velocity=64 time=0\n",
      "note_on channel=0 note=71 velocity=0 time=240\n",
      "note_on channel=0 note=69 velocity=64 time=0\n",
      "note_on channel=0 note=69 velocity=0 time=240\n",
      "note_on channel=0 note=64 velocity=64 time=0\n",
      "note_on channel=0 note=71 velocity=64 time=0\n",
      "note_on channel=0 note=68 velocity=64 time=0\n",
      "note_on channel=0 note=68 velocity=0 time=240\n",
      "note_on channel=0 note=71 velocity=0 time=0\n",
      "note_on channel=0 note=64 velocity=0 time=0\n",
      "note_on channel=0 note=69 velocity=64 time=0\n",
      "note_on channel=0 note=73 velocity=64 time=0\n",
      "note_on channel=0 note=73 velocity=0 time=240\n",
      "note_on channel=0 note=69 velocity=0 time=0\n",
      "note_on channel=0 note=85 velocity=64 time=720\n",
      "note_on channel=0 note=88 velocity=64 time=0\n",
      "note_on channel=0 note=88 velocity=0 time=240\n",
      "note_on channel=0 note=85 velocity=0 time=0\n",
      "note_on channel=0 note=83 velocity=64 time=0\n",
      "note_on channel=0 note=86 velocity=64 time=0\n",
      "note_on channel=0 note=86 velocity=0 time=240\n",
      "note_on channel=0 note=83 velocity=0 time=0\n",
      "note_on channel=0 note=85 velocity=64 time=0\n",
      "note_on channel=0 note=81 velocity=64 time=0\n",
      "note_on channel=0 note=81 velocity=0 time=240\n",
      "note_on channel=0 note=85 velocity=0 time=0\n",
      "note_on channel=0 note=85 velocity=64 time=0\n",
      "note_on channel=0 note=88 velocity=64 time=0\n",
      "note_on channel=0 note=88 velocity=0 time=480\n",
      "note_on channel=0 note=85 velocity=0 time=0\n",
      "note_on channel=0 note=83 velocity=64 time=0\n",
      "note_on channel=0 note=86 velocity=64 time=0\n",
      "note_on channel=0 note=86 velocity=0 time=240\n",
      "note_on channel=0 note=83 velocity=0 time=0\n",
      "note_on channel=0 note=85 velocity=64 time=0\n",
      "note_on channel=0 note=81 velocity=64 time=0\n",
      "note_on channel=0 note=81 velocity=0 time=480\n",
      "note_on channel=0 note=85 velocity=0 time=0\n",
      "note_on channel=0 note=69 velocity=64 time=0\n",
      "note_on channel=0 note=73 velocity=64 time=0\n",
      "note_on channel=0 note=64 velocity=64 time=0\n",
      "note_on channel=0 note=64 velocity=0 time=240\n",
      "note_on channel=0 note=73 velocity=0 time=0\n",
      "note_on channel=0 note=69 velocity=0 time=0\n",
      "note_on channel=0 note=68 velocity=64 time=0\n",
      "note_on channel=0 note=71 velocity=64 time=0\n",
      "note_on channel=0 note=64 velocity=64 time=0\n",
      "note_on channel=0 note=64 velocity=0 time=240\n",
      "note_on channel=0 note=71 velocity=0 time=0\n",
      "note_on channel=0 note=68 velocity=0 time=0\n",
      "note_on channel=0 note=69 velocity=64 time=0\n",
      "note_on channel=0 note=69 velocity=0 time=240\n",
      "<meta message end_of_track time=0>\n",
      "<meta message sequencer_specific data=(67, 0, 1, 0) time=0>\n",
      "<meta message track_name name='L.H' time=0>\n",
      "note_on channel=1 note=33 velocity=64 time=0\n",
      "note_on channel=1 note=33 velocity=0 time=120\n",
      "note_on channel=1 note=40 velocity=64 time=0\n",
      "note_on channel=1 note=40 velocity=0 time=120\n",
      "note_on channel=1 note=45 velocity=64 time=0\n",
      "note_on channel=1 note=45 velocity=0 time=120\n",
      "note_on channel=1 note=33 velocity=64 time=0\n",
      "note_on channel=1 note=33 velocity=0 time=120\n",
      "note_on channel=1 note=40 velocity=64 time=0\n",
      "note_on channel=1 note=40 velocity=0 time=120\n",
      "note_on channel=1 note=45 velocity=64 time=0\n",
      "note_on channel=1 note=45 velocity=0 time=120\n",
      "note_on channel=1 note=33 velocity=64 time=0\n",
      "note_on channel=1 note=33 velocity=0 time=120\n",
      "note_on channel=1 note=45 velocity=64 time=0\n",
      "note_on channel=1 note=45 velocity=0 time=120\n",
      "note_on channel=1 note=33 velocity=64 time=0\n",
      "note_on channel=1 note=33 velocity=0 time=120\n",
      "note_on channel=1 note=40 velocity=64 time=0\n",
      "note_on channel=1 note=40 velocity=0 time=120\n",
      "note_on channel=1 note=45 velocity=64 time=0\n",
      "note_on channel=1 note=45 velocity=0 time=120\n",
      "note_on channel=1 note=33 velocity=64 time=0\n",
      "note_on channel=1 note=33 velocity=0 time=120\n",
      "note_on channel=1 note=40 velocity=64 time=0\n",
      "note_on channel=1 note=40 velocity=0 time=120\n",
      "note_on channel=1 note=45 velocity=64 time=0\n",
      "note_on channel=1 note=45 velocity=0 time=120\n",
      "note_on channel=1 note=33 velocity=64 time=0\n",
      "note_on channel=1 note=33 velocity=0 time=120\n",
      "note_on channel=1 note=45 velocity=64 time=0\n",
      "note_on channel=1 note=45 velocity=0 time=120\n",
      "note_on channel=1 note=33 velocity=64 time=0\n",
      "note_on channel=1 note=33 velocity=0 time=120\n",
      "note_on channel=1 note=40 velocity=64 time=0\n",
      "note_on channel=1 note=40 velocity=0 time=120\n",
      "note_on channel=1 note=45 velocity=64 time=0\n",
      "note_on channel=1 note=45 velocity=0 time=120\n",
      "note_on channel=1 note=33 velocity=64 time=0\n",
      "note_on channel=1 note=33 velocity=0 time=120\n",
      "note_on channel=1 note=40 velocity=64 time=0\n",
      "note_on channel=1 note=40 velocity=0 time=120\n",
      "note_on channel=1 note=45 velocity=64 time=0\n",
      "note_on channel=1 note=45 velocity=0 time=120\n",
      "note_on channel=1 note=33 velocity=64 time=0\n",
      "note_on channel=1 note=33 velocity=0 time=120\n",
      "note_on channel=1 note=45 velocity=64 time=0\n",
      "note_on channel=1 note=45 velocity=0 time=120\n",
      "note_on channel=1 note=33 velocity=64 time=0\n",
      "note_on channel=1 note=33 velocity=0 time=120\n",
      "note_on channel=1 note=40 velocity=64 time=0\n",
      "note_on channel=1 note=40 velocity=0 time=120\n",
      "note_on channel=1 note=45 velocity=64 time=0\n",
      "note_on channel=1 note=45 velocity=0 time=120\n",
      "note_on channel=1 note=33 velocity=64 time=0\n",
      "note_on channel=1 note=33 velocity=0 time=120\n",
      "note_on channel=1 note=40 velocity=64 time=0\n",
      "note_on channel=1 note=40 velocity=0 time=120\n",
      "note_on channel=1 note=45 velocity=64 time=0\n",
      "note_on channel=1 note=45 velocity=0 time=120\n",
      "note_on channel=1 note=33 velocity=64 time=0\n",
      "note_on channel=1 note=33 velocity=0 time=120\n",
      "note_on channel=1 note=45 velocity=64 time=0\n",
      "note_on channel=1 note=45 velocity=0 time=120\n",
      "note_on channel=1 note=30 velocity=64 time=0\n",
      "note_on channel=1 note=30 velocity=0 time=120\n",
      "note_on channel=1 note=37 velocity=64 time=0\n",
      "note_on channel=1 note=37 velocity=0 time=120\n",
      "note_on channel=1 note=45 velocity=64 time=0\n",
      "note_on channel=1 note=45 velocity=0 time=120\n",
      "note_on channel=1 note=30 velocity=64 time=0\n",
      "note_on channel=1 note=30 velocity=0 time=120\n",
      "note_on channel=1 note=37 velocity=64 time=0\n",
      "note_on channel=1 note=37 velocity=0 time=120\n",
      "note_on channel=1 note=45 velocity=64 time=0\n",
      "note_on channel=1 note=45 velocity=0 time=120\n",
      "note_on channel=1 note=30 velocity=64 time=0\n",
      "note_on channel=1 note=30 velocity=0 time=120\n",
      "note_on channel=1 note=45 velocity=64 time=0\n",
      "note_on channel=1 note=45 velocity=0 time=120\n",
      "note_on channel=1 note=30 velocity=64 time=0\n",
      "note_on channel=1 note=30 velocity=0 time=120\n",
      "note_on channel=1 note=37 velocity=64 time=0\n",
      "note_on channel=1 note=37 velocity=0 time=120\n",
      "note_on channel=1 note=45 velocity=64 time=0\n",
      "note_on channel=1 note=45 velocity=0 time=120\n",
      "note_on channel=1 note=30 velocity=64 time=0\n",
      "note_on channel=1 note=30 velocity=0 time=120\n",
      "note_on channel=1 note=37 velocity=64 time=0\n",
      "note_on channel=1 note=37 velocity=0 time=120\n",
      "note_on channel=1 note=45 velocity=64 time=0\n",
      "note_on channel=1 note=45 velocity=0 time=120\n",
      "note_on channel=1 note=30 velocity=64 time=0\n",
      "note_on channel=1 note=30 velocity=0 time=120\n",
      "note_on channel=1 note=45 velocity=64 time=0\n",
      "note_on channel=1 note=45 velocity=0 time=120\n",
      "note_on channel=1 note=33 velocity=64 time=0\n",
      "note_on channel=1 note=33 velocity=0 time=120\n",
      "note_on channel=1 note=40 velocity=64 time=0\n",
      "note_on channel=1 note=40 velocity=0 time=120\n",
      "note_on channel=1 note=45 velocity=64 time=0\n",
      "note_on channel=1 note=45 velocity=0 time=120\n",
      "note_on channel=1 note=33 velocity=64 time=0\n",
      "note_on channel=1 note=33 velocity=0 time=120\n",
      "note_on channel=1 note=40 velocity=64 time=0\n",
      "note_on channel=1 note=40 velocity=0 time=120\n",
      "note_on channel=1 note=45 velocity=64 time=0\n",
      "note_on channel=1 note=45 velocity=0 time=120\n",
      "note_on channel=1 note=33 velocity=64 time=0\n",
      "note_on channel=1 note=33 velocity=0 time=120\n",
      "note_on channel=1 note=45 velocity=64 time=0\n",
      "note_on channel=1 note=45 velocity=0 time=120\n",
      "note_on channel=1 note=33 velocity=64 time=0\n",
      "note_on channel=1 note=33 velocity=0 time=120\n",
      "note_on channel=1 note=40 velocity=64 time=0\n",
      "note_on channel=1 note=40 velocity=0 time=120\n",
      "note_on channel=1 note=45 velocity=64 time=0\n",
      "note_on channel=1 note=45 velocity=0 time=120\n",
      "note_on channel=1 note=33 velocity=64 time=0\n",
      "note_on channel=1 note=33 velocity=0 time=120\n",
      "note_on channel=1 note=40 velocity=64 time=0\n",
      "note_on channel=1 note=40 velocity=0 time=120\n",
      "note_on channel=1 note=45 velocity=64 time=0\n",
      "note_on channel=1 note=45 velocity=0 time=120\n",
      "note_on channel=1 note=33 velocity=64 time=0\n",
      "note_on channel=1 note=33 velocity=0 time=120\n",
      "note_on channel=1 note=45 velocity=64 time=0\n",
      "note_on channel=1 note=45 velocity=0 time=120\n",
      "note_on channel=1 note=33 velocity=64 time=0\n",
      "note_on channel=1 note=33 velocity=0 time=120\n",
      "note_on channel=1 note=40 velocity=64 time=0\n",
      "note_on channel=1 note=40 velocity=0 time=120\n",
      "note_on channel=1 note=45 velocity=64 time=0\n",
      "note_on channel=1 note=45 velocity=0 time=120\n",
      "note_on channel=1 note=33 velocity=64 time=0\n",
      "note_on channel=1 note=33 velocity=0 time=120\n",
      "note_on channel=1 note=40 velocity=64 time=0\n",
      "note_on channel=1 note=40 velocity=0 time=120\n",
      "note_on channel=1 note=45 velocity=64 time=0\n",
      "note_on channel=1 note=45 velocity=0 time=120\n",
      "note_on channel=1 note=33 velocity=64 time=0\n",
      "note_on channel=1 note=33 velocity=0 time=120\n",
      "note_on channel=1 note=45 velocity=64 time=0\n",
      "note_on channel=1 note=45 velocity=0 time=120\n",
      "note_on channel=1 note=45 velocity=64 time=240\n",
      "note_on channel=1 note=33 velocity=64 time=0\n",
      "note_on channel=1 note=33 velocity=0 time=240\n",
      "note_on channel=1 note=45 velocity=0 time=0\n",
      "note_on channel=1 note=45 velocity=64 time=0\n",
      "note_on channel=1 note=45 velocity=0 time=120\n",
      "note_on channel=1 note=40 velocity=64 time=0\n",
      "note_on channel=1 note=40 velocity=0 time=120\n",
      "note_on channel=1 note=33 velocity=64 time=0\n",
      "note_on channel=1 note=33 velocity=0 time=232\n",
      "note_on channel=1 note=30 velocity=64 time=8\n",
      "note_on channel=1 note=30 velocity=0 time=240\n",
      "note_on channel=1 note=30 velocity=64 time=0\n",
      "note_on channel=1 note=30 velocity=0 time=240\n",
      "note_on channel=1 note=37 velocity=64 time=0\n",
      "note_on channel=1 note=42 velocity=64 time=0\n",
      "note_on channel=1 note=42 velocity=0 time=240\n",
      "note_on channel=1 note=37 velocity=0 time=0\n",
      "note_on channel=1 note=30 velocity=64 time=0\n",
      "note_on channel=1 note=30 velocity=0 time=240\n",
      "note_on channel=1 note=30 velocity=64 time=0\n",
      "note_on channel=1 note=30 velocity=0 time=240\n",
      "note_on channel=1 note=30 velocity=64 time=0\n",
      "note_on channel=1 note=30 velocity=0 time=240\n",
      "note_on channel=1 note=37 velocity=64 time=0\n",
      "note_on channel=1 note=42 velocity=64 time=0\n",
      "note_on channel=1 note=42 velocity=0 time=240\n",
      "note_on channel=1 note=37 velocity=0 time=0\n",
      "note_on channel=1 note=30 velocity=64 time=0\n",
      "note_on channel=1 note=30 velocity=0 time=240\n",
      "note_on channel=1 note=30 velocity=64 time=0\n",
      "note_on channel=1 note=30 velocity=0 time=240\n",
      "note_on channel=1 note=30 velocity=64 time=0\n",
      "note_on channel=1 note=30 velocity=0 time=240\n",
      "note_on channel=1 note=37 velocity=64 time=0\n",
      "note_on channel=1 note=42 velocity=64 time=0\n",
      "note_on channel=1 note=42 velocity=0 time=240\n",
      "note_on channel=1 note=37 velocity=0 time=0\n",
      "note_on channel=1 note=30 velocity=64 time=0\n",
      "note_on channel=1 note=30 velocity=0 time=240\n",
      "note_on channel=1 note=30 velocity=64 time=0\n",
      "note_on channel=1 note=30 velocity=0 time=240\n",
      "note_on channel=1 note=30 velocity=64 time=0\n",
      "note_on channel=1 note=30 velocity=0 time=240\n",
      "note_on channel=1 note=37 velocity=64 time=0\n",
      "note_on channel=1 note=42 velocity=64 time=0\n",
      "note_on channel=1 note=42 velocity=0 time=240\n",
      "note_on channel=1 note=37 velocity=0 time=0\n",
      "note_on channel=1 note=30 velocity=64 time=0\n",
      "note_on channel=1 note=30 velocity=0 time=240\n",
      "note_on channel=1 note=33 velocity=64 time=0\n",
      "note_on channel=1 note=33 velocity=0 time=240\n",
      "note_on channel=1 note=33 velocity=64 time=0\n",
      "note_on channel=1 note=33 velocity=0 time=240\n",
      "note_on channel=1 note=40 velocity=64 time=0\n",
      "note_on channel=1 note=45 velocity=64 time=0\n",
      "note_on channel=1 note=45 velocity=0 time=240\n",
      "note_on channel=1 note=40 velocity=0 time=0\n",
      "note_on channel=1 note=33 velocity=64 time=0\n",
      "note_on channel=1 note=33 velocity=0 time=240\n",
      "note_on channel=1 note=33 velocity=64 time=0\n",
      "note_on channel=1 note=33 velocity=0 time=240\n",
      "note_on channel=1 note=33 velocity=64 time=0\n",
      "note_on channel=1 note=33 velocity=0 time=240\n",
      "note_on channel=1 note=40 velocity=64 time=0\n",
      "note_on channel=1 note=45 velocity=64 time=0\n",
      "note_on channel=1 note=45 velocity=0 time=240\n",
      "note_on channel=1 note=40 velocity=0 time=0\n",
      "note_on channel=1 note=33 velocity=64 time=0\n",
      "note_on channel=1 note=33 velocity=0 time=240\n",
      "note_on channel=1 note=33 velocity=64 time=0\n",
      "note_on channel=1 note=33 velocity=0 time=240\n",
      "note_on channel=1 note=33 velocity=64 time=0\n",
      "note_on channel=1 note=33 velocity=0 time=240\n",
      "note_on channel=1 note=45 velocity=64 time=0\n",
      "note_on channel=1 note=40 velocity=64 time=0\n",
      "note_on channel=1 note=40 velocity=0 time=240\n",
      "note_on channel=1 note=45 velocity=0 time=0\n",
      "note_on channel=1 note=33 velocity=64 time=0\n",
      "note_on channel=1 note=33 velocity=0 time=240\n",
      "note_on channel=1 note=33 velocity=64 time=0\n",
      "note_on channel=1 note=33 velocity=0 time=240\n",
      "note_on channel=1 note=33 velocity=64 time=0\n",
      "note_on channel=1 note=33 velocity=0 time=240\n",
      "note_on channel=1 note=45 velocity=64 time=0\n",
      "note_on channel=1 note=40 velocity=64 time=0\n",
      "note_on channel=1 note=40 velocity=0 time=240\n",
      "note_on channel=1 note=45 velocity=0 time=0\n",
      "note_on channel=1 note=33 velocity=64 time=0\n",
      "note_on channel=1 note=33 velocity=0 time=240\n",
      "note_on channel=1 note=30 velocity=64 time=0\n",
      "note_on channel=1 note=30 velocity=0 time=240\n",
      "note_on channel=1 note=30 velocity=64 time=0\n",
      "note_on channel=1 note=30 velocity=0 time=240\n",
      "note_on channel=1 note=42 velocity=64 time=0\n",
      "note_on channel=1 note=37 velocity=64 time=0\n",
      "note_on channel=1 note=37 velocity=0 time=240\n",
      "note_on channel=1 note=42 velocity=0 time=0\n",
      "note_on channel=1 note=30 velocity=64 time=0\n",
      "note_on channel=1 note=30 velocity=0 time=240\n",
      "note_on channel=1 note=30 velocity=64 time=0\n",
      "note_on channel=1 note=30 velocity=0 time=240\n",
      "note_on channel=1 note=30 velocity=64 time=0\n",
      "note_on channel=1 note=30 velocity=0 time=240\n",
      "note_on channel=1 note=37 velocity=64 time=0\n",
      "note_on channel=1 note=42 velocity=64 time=0\n",
      "note_on channel=1 note=42 velocity=0 time=240\n",
      "note_on channel=1 note=37 velocity=0 time=0\n",
      "note_on channel=1 note=30 velocity=64 time=0\n",
      "note_on channel=1 note=30 velocity=0 time=240\n",
      "note_on channel=1 note=30 velocity=64 time=0\n",
      "note_on channel=1 note=30 velocity=0 time=240\n",
      "note_on channel=1 note=30 velocity=64 time=0\n",
      "note_on channel=1 note=30 velocity=0 time=240\n",
      "note_on channel=1 note=42 velocity=64 time=0\n",
      "note_on channel=1 note=37 velocity=64 time=0\n",
      "note_on channel=1 note=37 velocity=0 time=240\n",
      "note_on channel=1 note=42 velocity=0 time=0\n",
      "note_on channel=1 note=30 velocity=64 time=0\n",
      "note_on channel=1 note=30 velocity=0 time=240\n",
      "note_on channel=1 note=30 velocity=64 time=0\n",
      "note_on channel=1 note=30 velocity=0 time=240\n",
      "note_on channel=1 note=30 velocity=64 time=0\n",
      "note_on channel=1 note=30 velocity=0 time=240\n",
      "note_on channel=1 note=42 velocity=64 time=0\n",
      "note_on channel=1 note=37 velocity=64 time=0\n",
      "note_on channel=1 note=37 velocity=0 time=240\n",
      "note_on channel=1 note=42 velocity=0 time=0\n",
      "note_on channel=1 note=30 velocity=64 time=0\n",
      "note_on channel=1 note=30 velocity=0 time=240\n",
      "note_on channel=1 note=33 velocity=64 time=0\n",
      "note_on channel=1 note=33 velocity=0 time=240\n",
      "note_on channel=1 note=33 velocity=64 time=0\n",
      "note_on channel=1 note=33 velocity=0 time=240\n",
      "note_on channel=1 note=40 velocity=64 time=0\n",
      "note_on channel=1 note=45 velocity=64 time=0\n",
      "note_on channel=1 note=45 velocity=0 time=240\n",
      "note_on channel=1 note=40 velocity=0 time=0\n",
      "note_on channel=1 note=33 velocity=64 time=0\n",
      "note_on channel=1 note=33 velocity=0 time=240\n",
      "note_on channel=1 note=33 velocity=64 time=0\n",
      "note_on channel=1 note=33 velocity=0 time=240\n",
      "note_on channel=1 note=33 velocity=64 time=0\n",
      "note_on channel=1 note=33 velocity=0 time=240\n",
      "note_on channel=1 note=40 velocity=64 time=0\n",
      "note_on channel=1 note=45 velocity=64 time=0\n",
      "note_on channel=1 note=45 velocity=0 time=240\n",
      "note_on channel=1 note=40 velocity=0 time=0\n",
      "note_on channel=1 note=33 velocity=64 time=0\n",
      "note_on channel=1 note=33 velocity=0 time=240\n",
      "note_on channel=1 note=33 velocity=64 time=0\n",
      "note_on channel=1 note=33 velocity=0 time=240\n",
      "note_on channel=1 note=33 velocity=64 time=0\n",
      "note_on channel=1 note=33 velocity=0 time=240\n",
      "note_on channel=1 note=45 velocity=64 time=0\n",
      "note_on channel=1 note=40 velocity=64 time=0\n",
      "note_on channel=1 note=40 velocity=0 time=240\n",
      "note_on channel=1 note=45 velocity=0 time=0\n",
      "note_on channel=1 note=33 velocity=64 time=0\n",
      "note_on channel=1 note=33 velocity=0 time=240\n",
      "note_on channel=1 note=33 velocity=64 time=0\n",
      "note_on channel=1 note=33 velocity=0 time=240\n",
      "note_on channel=1 note=33 velocity=64 time=0\n",
      "note_on channel=1 note=33 velocity=0 time=240\n",
      "note_on channel=1 note=40 velocity=64 time=0\n",
      "note_on channel=1 note=45 velocity=64 time=0\n",
      "note_on channel=1 note=45 velocity=0 time=240\n",
      "note_on channel=1 note=40 velocity=0 time=0\n",
      "note_on channel=1 note=33 velocity=64 time=0\n",
      "note_on channel=1 note=33 velocity=0 time=240\n",
      "note_on channel=1 note=30 velocity=64 time=0\n",
      "note_on channel=1 note=30 velocity=0 time=240\n",
      "note_on channel=1 note=30 velocity=64 time=0\n",
      "note_on channel=1 note=30 velocity=0 time=240\n",
      "note_on channel=1 note=42 velocity=64 time=0\n",
      "note_on channel=1 note=37 velocity=64 time=0\n",
      "note_on channel=1 note=37 velocity=0 time=240\n",
      "note_on channel=1 note=42 velocity=0 time=0\n",
      "note_on channel=1 note=30 velocity=64 time=0\n",
      "note_on channel=1 note=30 velocity=0 time=240\n",
      "note_on channel=1 note=30 velocity=64 time=0\n",
      "note_on channel=1 note=30 velocity=0 time=240\n",
      "note_on channel=1 note=30 velocity=64 time=0\n",
      "note_on channel=1 note=30 velocity=0 time=240\n",
      "note_on channel=1 note=42 velocity=64 time=0\n",
      "note_on channel=1 note=37 velocity=64 time=0\n",
      "note_on channel=1 note=37 velocity=0 time=240\n",
      "note_on channel=1 note=42 velocity=0 time=0\n",
      "note_on channel=1 note=30 velocity=64 time=0\n",
      "note_on channel=1 note=30 velocity=0 time=240\n",
      "note_on channel=1 note=30 velocity=64 time=0\n",
      "note_on channel=1 note=30 velocity=0 time=240\n",
      "note_on channel=1 note=30 velocity=64 time=0\n",
      "note_on channel=1 note=30 velocity=0 time=240\n",
      "note_on channel=1 note=42 velocity=64 time=0\n",
      "note_on channel=1 note=37 velocity=64 time=0\n",
      "note_on channel=1 note=37 velocity=0 time=240\n",
      "note_on channel=1 note=42 velocity=0 time=0\n",
      "note_on channel=1 note=30 velocity=64 time=0\n",
      "note_on channel=1 note=30 velocity=0 time=240\n",
      "note_on channel=1 note=30 velocity=64 time=0\n",
      "note_on channel=1 note=30 velocity=0 time=240\n",
      "note_on channel=1 note=30 velocity=64 time=0\n",
      "note_on channel=1 note=30 velocity=0 time=240\n",
      "note_on channel=1 note=42 velocity=64 time=0\n",
      "note_on channel=1 note=37 velocity=64 time=0\n",
      "note_on channel=1 note=37 velocity=0 time=240\n",
      "note_on channel=1 note=42 velocity=0 time=0\n",
      "note_on channel=1 note=30 velocity=64 time=0\n",
      "note_on channel=1 note=30 velocity=0 time=240\n",
      "note_on channel=1 note=33 velocity=64 time=0\n",
      "note_on channel=1 note=33 velocity=0 time=240\n",
      "note_on channel=1 note=33 velocity=64 time=0\n",
      "note_on channel=1 note=33 velocity=0 time=240\n",
      "note_on channel=1 note=40 velocity=64 time=0\n",
      "note_on channel=1 note=45 velocity=64 time=0\n",
      "note_on channel=1 note=45 velocity=0 time=240\n",
      "note_on channel=1 note=40 velocity=0 time=0\n",
      "note_on channel=1 note=33 velocity=64 time=0\n",
      "note_on channel=1 note=33 velocity=0 time=240\n",
      "note_on channel=1 note=33 velocity=64 time=0\n",
      "note_on channel=1 note=33 velocity=0 time=240\n",
      "note_on channel=1 note=33 velocity=64 time=0\n",
      "note_on channel=1 note=33 velocity=0 time=240\n",
      "note_on channel=1 note=40 velocity=64 time=0\n",
      "note_on channel=1 note=45 velocity=64 time=0\n",
      "note_on channel=1 note=45 velocity=0 time=240\n",
      "note_on channel=1 note=40 velocity=0 time=0\n",
      "note_on channel=1 note=33 velocity=64 time=0\n",
      "note_on channel=1 note=33 velocity=0 time=240\n",
      "note_on channel=1 note=33 velocity=64 time=0\n",
      "note_on channel=1 note=33 velocity=0 time=240\n",
      "note_on channel=1 note=33 velocity=64 time=0\n",
      "note_on channel=1 note=33 velocity=0 time=240\n",
      "note_on channel=1 note=40 velocity=64 time=0\n",
      "note_on channel=1 note=45 velocity=64 time=0\n",
      "note_on channel=1 note=45 velocity=0 time=240\n",
      "note_on channel=1 note=40 velocity=0 time=0\n",
      "note_on channel=1 note=45 velocity=64 time=0\n",
      "note_on channel=1 note=45 velocity=0 time=240\n",
      "note_on channel=1 note=45 velocity=64 time=0\n",
      "note_on channel=1 note=45 velocity=0 time=240\n",
      "note_on channel=1 note=45 velocity=64 time=0\n",
      "note_on channel=1 note=45 velocity=0 time=240\n",
      "note_on channel=1 note=40 velocity=64 time=0\n",
      "note_on channel=1 note=40 velocity=0 time=240\n",
      "note_on channel=1 note=33 velocity=64 time=0\n",
      "note_on channel=1 note=33 velocity=0 time=240\n",
      "note_on channel=1 note=38 velocity=64 time=0\n",
      "note_on channel=1 note=50 velocity=64 time=0\n",
      "note_on channel=1 note=50 velocity=0 time=240\n",
      "note_on channel=1 note=38 velocity=0 time=0\n",
      "note_on channel=1 note=45 velocity=64 time=0\n",
      "note_on channel=1 note=45 velocity=0 time=240\n",
      "note_on channel=1 note=50 velocity=64 time=0\n",
      "note_on channel=1 note=38 velocity=64 time=0\n",
      "note_on channel=1 note=38 velocity=0 time=240\n",
      "note_on channel=1 note=50 velocity=0 time=0\n",
      "note_on channel=1 note=45 velocity=64 time=0\n",
      "note_on channel=1 note=45 velocity=0 time=240\n",
      "note_on channel=1 note=50 velocity=64 time=0\n",
      "note_on channel=1 note=38 velocity=64 time=0\n",
      "note_on channel=1 note=38 velocity=0 time=240\n",
      "note_on channel=1 note=50 velocity=0 time=0\n",
      "note_on channel=1 note=45 velocity=64 time=0\n",
      "note_on channel=1 note=45 velocity=0 time=240\n",
      "note_on channel=1 note=38 velocity=64 time=0\n",
      "note_on channel=1 note=50 velocity=64 time=0\n",
      "note_on channel=1 note=50 velocity=0 time=240\n",
      "note_on channel=1 note=38 velocity=0 time=0\n",
      "note_on channel=1 note=45 velocity=64 time=0\n",
      "note_on channel=1 note=45 velocity=0 time=240\n",
      "note_on channel=1 note=52 velocity=64 time=0\n",
      "note_on channel=1 note=40 velocity=64 time=0\n",
      "note_on channel=1 note=40 velocity=0 time=240\n",
      "note_on channel=1 note=52 velocity=0 time=0\n",
      "note_on channel=1 note=47 velocity=64 time=0\n",
      "note_on channel=1 note=47 velocity=0 time=240\n",
      "note_on channel=1 note=40 velocity=64 time=0\n",
      "note_on channel=1 note=52 velocity=64 time=0\n",
      "note_on channel=1 note=52 velocity=0 time=240\n",
      "note_on channel=1 note=40 velocity=0 time=0\n",
      "note_on channel=1 note=47 velocity=64 time=0\n",
      "note_on channel=1 note=47 velocity=0 time=240\n",
      "note_on channel=1 note=40 velocity=64 time=0\n",
      "note_on channel=1 note=52 velocity=64 time=0\n",
      "note_on channel=1 note=52 velocity=0 time=240\n",
      "note_on channel=1 note=40 velocity=0 time=0\n",
      "note_on channel=1 note=47 velocity=64 time=0\n",
      "note_on channel=1 note=47 velocity=0 time=240\n",
      "note_on channel=1 note=40 velocity=64 time=0\n",
      "note_on channel=1 note=52 velocity=64 time=0\n",
      "note_on channel=1 note=52 velocity=0 time=240\n",
      "note_on channel=1 note=40 velocity=0 time=0\n",
      "note_on channel=1 note=47 velocity=64 time=0\n",
      "note_on channel=1 note=47 velocity=0 time=240\n",
      "note_on channel=1 note=37 velocity=64 time=0\n",
      "note_on channel=1 note=49 velocity=64 time=0\n",
      "note_on channel=1 note=49 velocity=0 time=240\n",
      "note_on channel=1 note=37 velocity=0 time=0\n",
      "note_on channel=1 note=44 velocity=64 time=0\n",
      "note_on channel=1 note=44 velocity=0 time=240\n",
      "note_on channel=1 note=49 velocity=64 time=0\n",
      "note_on channel=1 note=37 velocity=64 time=0\n",
      "note_on channel=1 note=37 velocity=0 time=240\n",
      "note_on channel=1 note=49 velocity=0 time=0\n",
      "note_on channel=1 note=44 velocity=64 time=0\n",
      "note_on channel=1 note=44 velocity=0 time=240\n",
      "note_on channel=1 note=49 velocity=64 time=0\n",
      "note_on channel=1 note=37 velocity=64 time=0\n",
      "note_on channel=1 note=37 velocity=0 time=240\n",
      "note_on channel=1 note=49 velocity=0 time=0\n",
      "note_on channel=1 note=44 velocity=64 time=0\n",
      "note_on channel=1 note=44 velocity=0 time=240\n",
      "note_on channel=1 note=49 velocity=64 time=0\n",
      "note_on channel=1 note=37 velocity=64 time=0\n",
      "note_on channel=1 note=37 velocity=0 time=240\n",
      "note_on channel=1 note=49 velocity=0 time=0\n",
      "note_on channel=1 note=44 velocity=64 time=0\n",
      "note_on channel=1 note=44 velocity=0 time=240\n",
      "note_on channel=1 note=54 velocity=64 time=0\n",
      "note_on channel=1 note=42 velocity=64 time=0\n",
      "note_on channel=1 note=42 velocity=0 time=240\n",
      "note_on channel=1 note=54 velocity=0 time=0\n",
      "note_on channel=1 note=49 velocity=64 time=0\n",
      "note_on channel=1 note=49 velocity=0 time=240\n",
      "note_on channel=1 note=54 velocity=64 time=0\n",
      "note_on channel=1 note=42 velocity=64 time=0\n",
      "note_on channel=1 note=42 velocity=0 time=240\n",
      "note_on channel=1 note=54 velocity=0 time=0\n",
      "note_on channel=1 note=49 velocity=64 time=0\n",
      "note_on channel=1 note=49 velocity=0 time=240\n",
      "note_on channel=1 note=54 velocity=64 time=0\n",
      "note_on channel=1 note=42 velocity=64 time=0\n",
      "note_on channel=1 note=42 velocity=0 time=240\n",
      "note_on channel=1 note=54 velocity=0 time=0\n",
      "note_on channel=1 note=49 velocity=64 time=0\n",
      "note_on channel=1 note=49 velocity=0 time=240\n",
      "note_on channel=1 note=54 velocity=64 time=0\n",
      "note_on channel=1 note=42 velocity=64 time=0\n",
      "note_on channel=1 note=42 velocity=0 time=240\n",
      "note_on channel=1 note=54 velocity=0 time=0\n",
      "note_on channel=1 note=49 velocity=64 time=0\n",
      "note_on channel=1 note=49 velocity=0 time=240\n",
      "note_on channel=1 note=47 velocity=64 time=0\n",
      "note_on channel=1 note=35 velocity=64 time=0\n",
      "note_on channel=1 note=35 velocity=0 time=240\n",
      "note_on channel=1 note=47 velocity=0 time=0\n",
      "note_on channel=1 note=42 velocity=64 time=0\n",
      "note_on channel=1 note=42 velocity=0 time=240\n",
      "note_on channel=1 note=47 velocity=64 time=0\n",
      "note_on channel=1 note=35 velocity=64 time=0\n",
      "note_on channel=1 note=35 velocity=0 time=240\n",
      "note_on channel=1 note=47 velocity=0 time=0\n",
      "note_on channel=1 note=42 velocity=64 time=0\n",
      "note_on channel=1 note=42 velocity=0 time=240\n",
      "note_on channel=1 note=47 velocity=64 time=0\n",
      "note_on channel=1 note=35 velocity=64 time=0\n",
      "note_on channel=1 note=35 velocity=0 time=240\n",
      "note_on channel=1 note=47 velocity=0 time=0\n",
      "note_on channel=1 note=42 velocity=64 time=0\n",
      "note_on channel=1 note=42 velocity=0 time=240\n",
      "note_on channel=1 note=35 velocity=64 time=0\n",
      "note_on channel=1 note=47 velocity=64 time=0\n",
      "note_on channel=1 note=47 velocity=0 time=240\n",
      "note_on channel=1 note=35 velocity=0 time=0\n",
      "note_on channel=1 note=42 velocity=64 time=0\n",
      "note_on channel=1 note=42 velocity=0 time=240\n",
      "note_on channel=1 note=40 velocity=64 time=0\n",
      "note_on channel=1 note=52 velocity=64 time=0\n",
      "note_on channel=1 note=52 velocity=0 time=240\n",
      "note_on channel=1 note=40 velocity=0 time=0\n",
      "note_on channel=1 note=47 velocity=64 time=0\n",
      "note_on channel=1 note=47 velocity=0 time=240\n",
      "note_on channel=1 note=40 velocity=64 time=0\n",
      "note_on channel=1 note=52 velocity=64 time=0\n",
      "note_on channel=1 note=52 velocity=0 time=240\n",
      "note_on channel=1 note=40 velocity=0 time=0\n",
      "note_on channel=1 note=47 velocity=64 time=0\n",
      "note_on channel=1 note=47 velocity=0 time=240\n",
      "note_on channel=1 note=52 velocity=64 time=0\n",
      "note_on channel=1 note=40 velocity=64 time=0\n",
      "note_on channel=1 note=40 velocity=0 time=240\n",
      "note_on channel=1 note=52 velocity=0 time=0\n",
      "note_on channel=1 note=47 velocity=64 time=0\n",
      "note_on channel=1 note=47 velocity=0 time=240\n",
      "note_on channel=1 note=40 velocity=64 time=0\n",
      "note_on channel=1 note=52 velocity=64 time=0\n",
      "note_on channel=1 note=52 velocity=0 time=240\n",
      "note_on channel=1 note=40 velocity=0 time=0\n",
      "note_on channel=1 note=47 velocity=64 time=0\n",
      "note_on channel=1 note=47 velocity=0 time=240\n",
      "note_on channel=1 note=33 velocity=64 time=0\n",
      "note_on channel=1 note=45 velocity=64 time=0\n",
      "note_on channel=1 note=45 velocity=0 time=240\n",
      "note_on channel=1 note=33 velocity=0 time=0\n",
      "note_on channel=1 note=40 velocity=64 time=0\n",
      "note_on channel=1 note=40 velocity=0 time=240\n",
      "note_on channel=1 note=33 velocity=64 time=0\n",
      "note_on channel=1 note=45 velocity=64 time=0\n",
      "note_on channel=1 note=45 velocity=0 time=240\n",
      "note_on channel=1 note=33 velocity=0 time=0\n",
      "note_on channel=1 note=40 velocity=64 time=0\n",
      "note_on channel=1 note=40 velocity=0 time=240\n",
      "note_on channel=1 note=45 velocity=64 time=0\n",
      "note_on channel=1 note=33 velocity=64 time=0\n",
      "note_on channel=1 note=33 velocity=0 time=240\n",
      "note_on channel=1 note=45 velocity=0 time=0\n",
      "note_on channel=1 note=40 velocity=64 time=0\n",
      "note_on channel=1 note=40 velocity=0 time=240\n",
      "note_on channel=1 note=33 velocity=64 time=0\n",
      "note_on channel=1 note=45 velocity=64 time=0\n",
      "note_on channel=1 note=45 velocity=0 time=240\n",
      "note_on channel=1 note=33 velocity=0 time=0\n",
      "note_on channel=1 note=40 velocity=64 time=0\n",
      "note_on channel=1 note=40 velocity=0 time=240\n",
      "note_on channel=1 note=33 velocity=64 time=0\n",
      "note_on channel=1 note=45 velocity=64 time=0\n",
      "note_on channel=1 note=45 velocity=0 time=240\n",
      "note_on channel=1 note=33 velocity=0 time=0\n",
      "note_on channel=1 note=40 velocity=64 time=0\n",
      "note_on channel=1 note=40 velocity=0 time=240\n",
      "note_on channel=1 note=33 velocity=64 time=0\n",
      "note_on channel=1 note=45 velocity=64 time=0\n",
      "note_on channel=1 note=45 velocity=0 time=240\n",
      "note_on channel=1 note=33 velocity=0 time=0\n",
      "note_on channel=1 note=40 velocity=64 time=0\n",
      "note_on channel=1 note=40 velocity=0 time=240\n",
      "note_on channel=1 note=33 velocity=64 time=0\n",
      "note_on channel=1 note=33 velocity=0 time=240\n",
      "note_on channel=1 note=45 velocity=64 time=0\n",
      "note_on channel=1 note=45 velocity=0 time=240\n",
      "note_on channel=1 note=32 velocity=64 time=0\n",
      "note_on channel=1 note=32 velocity=0 time=240\n",
      "note_on channel=1 note=44 velocity=64 time=0\n",
      "note_on channel=1 note=44 velocity=0 time=240\n",
      "note_on channel=1 note=30 velocity=64 time=0\n",
      "note_on channel=1 note=30 velocity=0 time=240\n",
      "note_on channel=1 note=42 velocity=64 time=0\n",
      "note_on channel=1 note=42 velocity=0 time=240\n",
      "note_on channel=1 note=42 velocity=64 time=0\n",
      "note_on channel=1 note=42 velocity=0 time=240\n",
      "note_on channel=1 note=54 velocity=64 time=0\n",
      "note_on channel=1 note=54 velocity=0 time=240\n",
      "note_on channel=1 note=49 velocity=64 time=0\n",
      "note_on channel=1 note=49 velocity=0 time=240\n",
      "note_on channel=1 note=42 velocity=64 time=0\n",
      "note_on channel=1 note=42 velocity=0 time=240\n",
      "note_on channel=1 note=42 velocity=64 time=0\n",
      "note_on channel=1 note=42 velocity=0 time=240\n",
      "note_on channel=1 note=30 velocity=64 time=0\n",
      "note_on channel=1 note=30 velocity=0 time=240\n",
      "note_on channel=1 note=32 velocity=64 time=0\n",
      "note_on channel=1 note=32 velocity=0 time=240\n",
      "note_on channel=1 note=44 velocity=64 time=0\n",
      "note_on channel=1 note=44 velocity=0 time=240\n",
      "note_on channel=1 note=44 velocity=64 time=0\n",
      "note_on channel=1 note=44 velocity=0 time=240\n",
      "note_on channel=1 note=56 velocity=64 time=0\n",
      "note_on channel=1 note=56 velocity=0 time=240\n",
      "note_on channel=1 note=52 velocity=64 time=0\n",
      "note_on channel=1 note=52 velocity=0 time=240\n",
      "note_on channel=1 note=44 velocity=64 time=0\n",
      "note_on channel=1 note=44 velocity=0 time=240\n",
      "note_on channel=1 note=44 velocity=64 time=0\n",
      "note_on channel=1 note=44 velocity=0 time=240\n",
      "note_on channel=1 note=32 velocity=64 time=0\n",
      "note_on channel=1 note=32 velocity=0 time=240\n",
      "note_on channel=1 note=33 velocity=64 time=0\n",
      "note_on channel=1 note=33 velocity=0 time=240\n",
      "note_on channel=1 note=45 velocity=64 time=0\n",
      "note_on channel=1 note=45 velocity=0 time=240\n",
      "note_on channel=1 note=45 velocity=64 time=0\n",
      "note_on channel=1 note=45 velocity=0 time=240\n",
      "note_on channel=1 note=57 velocity=64 time=0\n",
      "note_on channel=1 note=57 velocity=0 time=240\n",
      "note_on channel=1 note=52 velocity=64 time=0\n",
      "note_on channel=1 note=52 velocity=0 time=240\n",
      "note_on channel=1 note=45 velocity=64 time=0\n",
      "note_on channel=1 note=45 velocity=0 time=240\n",
      "note_on channel=1 note=45 velocity=64 time=0\n",
      "note_on channel=1 note=45 velocity=0 time=240\n",
      "note_on channel=1 note=40 velocity=64 time=0\n",
      "note_on channel=1 note=40 velocity=0 time=240\n",
      "note_on channel=1 note=33 velocity=64 time=0\n",
      "note_on channel=1 note=33 velocity=0 time=240\n",
      "note_on channel=1 note=45 velocity=64 time=0\n",
      "note_on channel=1 note=45 velocity=0 time=240\n",
      "note_on channel=1 note=40 velocity=64 time=0\n",
      "note_on channel=1 note=40 velocity=0 time=240\n",
      "note_on channel=1 note=45 velocity=64 time=0\n",
      "note_on channel=1 note=45 velocity=0 time=240\n",
      "note_on channel=1 note=33 velocity=64 time=0\n",
      "note_on channel=1 note=33 velocity=0 time=240\n",
      "note_on channel=1 note=45 velocity=64 time=0\n",
      "note_on channel=1 note=45 velocity=0 time=240\n",
      "note_on channel=1 note=32 velocity=64 time=0\n",
      "note_on channel=1 note=32 velocity=0 time=240\n",
      "note_on channel=1 note=44 velocity=64 time=0\n",
      "note_on channel=1 note=44 velocity=0 time=240\n",
      "note_on channel=1 note=30 velocity=64 time=0\n",
      "note_on channel=1 note=30 velocity=0 time=240\n",
      "note_on channel=1 note=42 velocity=64 time=0\n",
      "note_on channel=1 note=42 velocity=0 time=240\n",
      "note_on channel=1 note=42 velocity=64 time=0\n",
      "note_on channel=1 note=42 velocity=0 time=240\n",
      "note_on channel=1 note=54 velocity=64 time=0\n",
      "note_on channel=1 note=54 velocity=0 time=240\n",
      "note_on channel=1 note=49 velocity=64 time=0\n",
      "note_on channel=1 note=49 velocity=0 time=240\n",
      "note_on channel=1 note=42 velocity=64 time=0\n",
      "note_on channel=1 note=42 velocity=0 time=240\n",
      "note_on channel=1 note=42 velocity=64 time=0\n",
      "note_on channel=1 note=42 velocity=0 time=240\n",
      "note_on channel=1 note=30 velocity=64 time=0\n",
      "note_on channel=1 note=30 velocity=0 time=240\n",
      "note_on channel=1 note=32 velocity=64 time=0\n",
      "note_on channel=1 note=32 velocity=0 time=240\n",
      "note_on channel=1 note=44 velocity=64 time=0\n",
      "note_on channel=1 note=44 velocity=0 time=240\n",
      "note_on channel=1 note=44 velocity=64 time=0\n",
      "note_on channel=1 note=44 velocity=0 time=240\n",
      "note_on channel=1 note=56 velocity=64 time=0\n",
      "note_on channel=1 note=56 velocity=0 time=240\n",
      "note_on channel=1 note=52 velocity=64 time=0\n",
      "note_on channel=1 note=52 velocity=0 time=240\n",
      "note_on channel=1 note=44 velocity=64 time=0\n",
      "note_on channel=1 note=44 velocity=0 time=240\n",
      "note_on channel=1 note=44 velocity=64 time=0\n",
      "note_on channel=1 note=44 velocity=0 time=240\n",
      "note_on channel=1 note=32 velocity=64 time=0\n",
      "note_on channel=1 note=32 velocity=0 time=240\n",
      "note_on channel=1 note=33 velocity=64 time=0\n",
      "note_on channel=1 note=33 velocity=0 time=240\n",
      "note_on channel=1 note=45 velocity=64 time=0\n",
      "note_on channel=1 note=45 velocity=0 time=240\n",
      "note_on channel=1 note=45 velocity=64 time=0\n",
      "note_on channel=1 note=45 velocity=0 time=240\n",
      "note_on channel=1 note=57 velocity=64 time=0\n",
      "note_on channel=1 note=57 velocity=0 time=240\n",
      "note_on channel=1 note=52 velocity=64 time=0\n",
      "note_on channel=1 note=52 velocity=0 time=240\n",
      "note_on channel=1 note=45 velocity=64 time=0\n",
      "note_on channel=1 note=45 velocity=0 time=240\n",
      "note_on channel=1 note=40 velocity=64 time=0\n",
      "note_on channel=1 note=40 velocity=0 time=240\n",
      "note_on channel=1 note=33 velocity=64 time=0\n",
      "note_on channel=1 note=45 velocity=64 time=0\n",
      "note_on channel=1 note=45 velocity=0 time=480\n",
      "note_on channel=1 note=33 velocity=0 time=0\n",
      "note_on channel=1 note=33 velocity=64 time=0\n",
      "note_on channel=1 note=45 velocity=64 time=0\n",
      "note_on channel=1 note=45 velocity=0 time=240\n",
      "note_on channel=1 note=33 velocity=0 time=0\n",
      "note_on channel=1 note=35 velocity=64 time=0\n",
      "note_on channel=1 note=47 velocity=64 time=0\n",
      "note_on channel=1 note=47 velocity=0 time=240\n",
      "note_on channel=1 note=35 velocity=0 time=0\n",
      "note_on channel=1 note=35 velocity=64 time=0\n",
      "note_on channel=1 note=47 velocity=64 time=0\n",
      "note_on channel=1 note=47 velocity=0 time=240\n",
      "note_on channel=1 note=35 velocity=0 time=0\n",
      "note_on channel=1 note=36 velocity=64 time=0\n",
      "note_on channel=1 note=48 velocity=64 time=0\n",
      "note_on channel=1 note=48 velocity=0 time=240\n",
      "note_on channel=1 note=36 velocity=0 time=0\n",
      "note_on channel=1 note=48 velocity=64 time=0\n",
      "note_on channel=1 note=36 velocity=64 time=0\n",
      "note_on channel=1 note=36 velocity=0 time=240\n",
      "note_on channel=1 note=48 velocity=0 time=0\n",
      "note_on channel=1 note=49 velocity=64 time=0\n",
      "note_on channel=1 note=37 velocity=64 time=0\n",
      "note_on channel=1 note=37 velocity=0 time=240\n",
      "note_on channel=1 note=49 velocity=0 time=0\n",
      "note_on channel=1 note=38 velocity=64 time=0\n",
      "note_on channel=1 note=50 velocity=64 time=0\n",
      "note_on channel=1 note=50 velocity=0 time=480\n",
      "note_on channel=1 note=38 velocity=0 time=0\n",
      "note_on channel=1 note=38 velocity=64 time=0\n",
      "note_on channel=1 note=38 velocity=0 time=240\n",
      "note_on channel=1 note=50 velocity=64 time=0\n",
      "note_on channel=1 note=45 velocity=64 time=0\n",
      "note_on channel=1 note=45 velocity=0 time=240\n",
      "note_on channel=1 note=50 velocity=0 time=0\n",
      "note_on channel=1 note=38 velocity=64 time=0\n",
      "note_on channel=1 note=38 velocity=0 time=240\n",
      "note_on channel=1 note=38 velocity=64 time=0\n",
      "note_on channel=1 note=38 velocity=0 time=240\n",
      "note_on channel=1 note=38 velocity=64 time=0\n",
      "note_on channel=1 note=38 velocity=0 time=240\n",
      "note_on channel=1 note=45 velocity=64 time=0\n",
      "note_on channel=1 note=50 velocity=64 time=0\n",
      "note_on channel=1 note=50 velocity=0 time=240\n",
      "note_on channel=1 note=45 velocity=0 time=0\n",
      "note_on channel=1 note=40 velocity=64 time=0\n",
      "note_on channel=1 note=40 velocity=0 time=240\n",
      "note_on channel=1 note=40 velocity=64 time=0\n",
      "note_on channel=1 note=40 velocity=0 time=240\n",
      "note_on channel=1 note=40 velocity=64 time=0\n",
      "note_on channel=1 note=40 velocity=0 time=240\n",
      "note_on channel=1 note=52 velocity=64 time=0\n",
      "note_on channel=1 note=47 velocity=64 time=0\n",
      "note_on channel=1 note=47 velocity=0 time=240\n",
      "note_on channel=1 note=52 velocity=0 time=0\n",
      "note_on channel=1 note=40 velocity=64 time=0\n",
      "note_on channel=1 note=40 velocity=0 time=240\n",
      "note_on channel=1 note=40 velocity=64 time=0\n",
      "note_on channel=1 note=40 velocity=0 time=240\n",
      "note_on channel=1 note=40 velocity=64 time=0\n",
      "note_on channel=1 note=40 velocity=0 time=240\n",
      "note_on channel=1 note=52 velocity=64 time=0\n",
      "note_on channel=1 note=47 velocity=64 time=0\n",
      "note_on channel=1 note=47 velocity=0 time=240\n",
      "note_on channel=1 note=52 velocity=0 time=0\n",
      "note_on channel=1 note=41 velocity=64 time=0\n",
      "note_on channel=1 note=41 velocity=0 time=240\n",
      "note_on channel=1 note=41 velocity=64 time=0\n",
      "note_on channel=1 note=41 velocity=0 time=240\n",
      "note_on channel=1 note=41 velocity=64 time=0\n",
      "note_on channel=1 note=41 velocity=0 time=240\n",
      "note_on channel=1 note=53 velocity=64 time=0\n",
      "note_on channel=1 note=49 velocity=64 time=0\n",
      "note_on channel=1 note=49 velocity=0 time=240\n",
      "note_on channel=1 note=53 velocity=0 time=0\n",
      "note_on channel=1 note=41 velocity=64 time=0\n",
      "note_on channel=1 note=41 velocity=0 time=240\n",
      "note_on channel=1 note=41 velocity=64 time=0\n",
      "note_on channel=1 note=41 velocity=0 time=240\n",
      "note_on channel=1 note=41 velocity=64 time=0\n",
      "note_on channel=1 note=41 velocity=0 time=240\n",
      "note_on channel=1 note=49 velocity=64 time=0\n",
      "note_on channel=1 note=53 velocity=64 time=0\n",
      "note_on channel=1 note=53 velocity=0 time=240\n",
      "note_on channel=1 note=49 velocity=0 time=0\n",
      "note_on channel=1 note=41 velocity=64 time=0\n",
      "note_on channel=1 note=41 velocity=0 time=240\n",
      "note_on channel=1 note=42 velocity=64 time=0\n",
      "note_on channel=1 note=42 velocity=0 time=240\n",
      "note_on channel=1 note=42 velocity=64 time=0\n",
      "note_on channel=1 note=42 velocity=0 time=240\n",
      "note_on channel=1 note=49 velocity=64 time=0\n",
      "note_on channel=1 note=54 velocity=64 time=0\n",
      "note_on channel=1 note=54 velocity=0 time=240\n",
      "note_on channel=1 note=49 velocity=0 time=0\n",
      "note_on channel=1 note=42 velocity=64 time=0\n",
      "note_on channel=1 note=42 velocity=0 time=240\n",
      "note_on channel=1 note=42 velocity=64 time=0\n",
      "note_on channel=1 note=42 velocity=0 time=240\n",
      "note_on channel=1 note=42 velocity=64 time=0\n",
      "note_on channel=1 note=42 velocity=0 time=240\n",
      "note_on channel=1 note=54 velocity=64 time=0\n",
      "note_on channel=1 note=49 velocity=64 time=0\n",
      "note_on channel=1 note=49 velocity=0 time=240\n",
      "note_on channel=1 note=54 velocity=0 time=0\n",
      "note_on channel=1 note=42 velocity=64 time=0\n",
      "note_on channel=1 note=42 velocity=0 time=240\n",
      "note_on channel=1 note=43 velocity=64 time=0\n",
      "note_on channel=1 note=43 velocity=0 time=240\n",
      "note_on channel=1 note=43 velocity=64 time=0\n",
      "note_on channel=1 note=43 velocity=0 time=240\n",
      "note_on channel=1 note=55 velocity=64 time=0\n",
      "note_on channel=1 note=50 velocity=64 time=0\n",
      "note_on channel=1 note=50 velocity=0 time=240\n",
      "note_on channel=1 note=55 velocity=0 time=0\n",
      "note_on channel=1 note=43 velocity=64 time=0\n",
      "note_on channel=1 note=43 velocity=0 time=240\n",
      "note_on channel=1 note=43 velocity=64 time=0\n",
      "note_on channel=1 note=43 velocity=0 time=240\n",
      "note_on channel=1 note=43 velocity=64 time=0\n",
      "note_on channel=1 note=43 velocity=0 time=240\n",
      "note_on channel=1 note=55 velocity=64 time=0\n",
      "note_on channel=1 note=50 velocity=64 time=0\n",
      "note_on channel=1 note=50 velocity=0 time=240\n",
      "note_on channel=1 note=55 velocity=0 time=0\n",
      "note_on channel=1 note=43 velocity=64 time=0\n",
      "note_on channel=1 note=43 velocity=0 time=240\n",
      "note_on channel=1 note=50 velocity=64 time=0\n",
      "note_on channel=1 note=38 velocity=64 time=0\n",
      "note_on channel=1 note=38 velocity=0 time=1400\n",
      "note_on channel=1 note=50 velocity=0 time=0\n",
      "note_on channel=1 note=38 velocity=64 time=40\n",
      "note_on channel=1 note=50 velocity=64 time=0\n",
      "note_on channel=1 note=50 velocity=0 time=480\n",
      "note_on channel=1 note=38 velocity=0 time=0\n",
      "note_on channel=1 note=41 velocity=64 time=0\n",
      "note_on channel=1 note=41 velocity=0 time=240\n",
      "note_on channel=1 note=41 velocity=64 time=0\n",
      "note_on channel=1 note=41 velocity=0 time=240\n",
      "note_on channel=1 note=53 velocity=64 time=0\n",
      "note_on channel=1 note=48 velocity=64 time=0\n",
      "note_on channel=1 note=48 velocity=0 time=240\n",
      "note_on channel=1 note=53 velocity=0 time=0\n",
      "note_on channel=1 note=41 velocity=64 time=0\n",
      "note_on channel=1 note=41 velocity=0 time=240\n",
      "note_on channel=1 note=41 velocity=64 time=0\n",
      "note_on channel=1 note=41 velocity=0 time=240\n",
      "note_on channel=1 note=41 velocity=64 time=0\n",
      "note_on channel=1 note=41 velocity=0 time=240\n",
      "note_on channel=1 note=53 velocity=64 time=0\n",
      "note_on channel=1 note=48 velocity=64 time=0\n",
      "note_on channel=1 note=48 velocity=0 time=240\n",
      "note_on channel=1 note=53 velocity=0 time=0\n",
      "note_on channel=1 note=41 velocity=64 time=0\n",
      "note_on channel=1 note=41 velocity=0 time=240\n",
      "note_on channel=1 note=40 velocity=64 time=0\n",
      "note_on channel=1 note=40 velocity=0 time=240\n",
      "note_on channel=1 note=40 velocity=64 time=0\n",
      "note_on channel=1 note=40 velocity=0 time=240\n",
      "note_on channel=1 note=48 velocity=64 time=0\n",
      "note_on channel=1 note=52 velocity=64 time=0\n",
      "note_on channel=1 note=52 velocity=0 time=240\n",
      "note_on channel=1 note=48 velocity=0 time=0\n",
      "note_on channel=1 note=40 velocity=64 time=0\n",
      "note_on channel=1 note=40 velocity=0 time=240\n",
      "note_on channel=1 note=40 velocity=64 time=0\n",
      "note_on channel=1 note=40 velocity=0 time=240\n",
      "note_on channel=1 note=40 velocity=64 time=0\n",
      "note_on channel=1 note=40 velocity=0 time=240\n",
      "note_on channel=1 note=52 velocity=64 time=0\n",
      "note_on channel=1 note=48 velocity=64 time=0\n",
      "note_on channel=1 note=48 velocity=0 time=240\n",
      "note_on channel=1 note=52 velocity=0 time=0\n",
      "note_on channel=1 note=40 velocity=64 time=0\n",
      "note_on channel=1 note=40 velocity=0 time=240\n",
      "note_on channel=1 note=44 velocity=64 time=0\n",
      "note_on channel=1 note=44 velocity=0 time=240\n",
      "note_on channel=1 note=44 velocity=64 time=0\n",
      "note_on channel=1 note=44 velocity=0 time=240\n",
      "note_on channel=1 note=52 velocity=64 time=0\n",
      "note_on channel=1 note=56 velocity=64 time=0\n",
      "note_on channel=1 note=56 velocity=0 time=240\n",
      "note_on channel=1 note=52 velocity=0 time=0\n",
      "note_on channel=1 note=44 velocity=64 time=0\n",
      "note_on channel=1 note=44 velocity=0 time=240\n",
      "note_on channel=1 note=44 velocity=64 time=0\n",
      "note_on channel=1 note=44 velocity=0 time=240\n",
      "note_on channel=1 note=44 velocity=64 time=0\n",
      "note_on channel=1 note=44 velocity=0 time=240\n",
      "note_on channel=1 note=56 velocity=64 time=0\n",
      "note_on channel=1 note=52 velocity=64 time=0\n",
      "note_on channel=1 note=52 velocity=0 time=240\n",
      "note_on channel=1 note=56 velocity=0 time=0\n",
      "note_on channel=1 note=44 velocity=64 time=0\n",
      "note_on channel=1 note=44 velocity=0 time=240\n",
      "note_on channel=1 note=45 velocity=64 time=0\n",
      "note_on channel=1 note=45 velocity=0 time=240\n",
      "note_on channel=1 note=45 velocity=64 time=0\n",
      "note_on channel=1 note=45 velocity=0 time=240\n",
      "note_on channel=1 note=52 velocity=64 time=0\n",
      "note_on channel=1 note=57 velocity=64 time=0\n",
      "note_on channel=1 note=57 velocity=0 time=240\n",
      "note_on channel=1 note=52 velocity=0 time=0\n",
      "note_on channel=1 note=45 velocity=64 time=0\n",
      "note_on channel=1 note=45 velocity=0 time=240\n",
      "note_on channel=1 note=45 velocity=64 time=0\n",
      "note_on channel=1 note=57 velocity=64 time=0\n",
      "note_on channel=1 note=57 velocity=0 time=480\n",
      "note_on channel=1 note=45 velocity=0 time=0\n",
      "note_on channel=1 note=44 velocity=64 time=0\n",
      "note_on channel=1 note=56 velocity=64 time=0\n",
      "note_on channel=1 note=56 velocity=0 time=480\n",
      "note_on channel=1 note=44 velocity=0 time=0\n",
      "note_on channel=1 note=42 velocity=64 time=0\n",
      "note_on channel=1 note=42 velocity=0 time=240\n",
      "note_on channel=1 note=42 velocity=64 time=0\n",
      "note_on channel=1 note=42 velocity=0 time=240\n",
      "note_on channel=1 note=49 velocity=64 time=0\n",
      "note_on channel=1 note=54 velocity=64 time=0\n",
      "note_on channel=1 note=54 velocity=0 time=240\n",
      "note_on channel=1 note=49 velocity=0 time=0\n",
      "note_on channel=1 note=42 velocity=64 time=0\n",
      "note_on channel=1 note=42 velocity=0 time=240\n",
      "note_on channel=1 note=42 velocity=64 time=0\n",
      "note_on channel=1 note=42 velocity=0 time=240\n",
      "note_on channel=1 note=42 velocity=64 time=0\n",
      "note_on channel=1 note=42 velocity=0 time=240\n",
      "note_on channel=1 note=49 velocity=64 time=0\n",
      "note_on channel=1 note=54 velocity=64 time=0\n",
      "note_on channel=1 note=54 velocity=0 time=240\n",
      "note_on channel=1 note=49 velocity=0 time=0\n",
      "note_on channel=1 note=42 velocity=64 time=0\n",
      "note_on channel=1 note=42 velocity=0 time=240\n",
      "note_on channel=1 note=42 velocity=64 time=0\n",
      "note_on channel=1 note=42 velocity=0 time=240\n",
      "note_on channel=1 note=42 velocity=64 time=0\n",
      "note_on channel=1 note=42 velocity=0 time=240\n",
      "note_on channel=1 note=49 velocity=64 time=0\n",
      "note_on channel=1 note=54 velocity=64 time=0\n",
      "note_on channel=1 note=54 velocity=0 time=240\n",
      "note_on channel=1 note=49 velocity=0 time=0\n",
      "note_on channel=1 note=42 velocity=64 time=0\n",
      "note_on channel=1 note=42 velocity=0 time=240\n",
      "note_on channel=1 note=42 velocity=64 time=0\n",
      "note_on channel=1 note=42 velocity=0 time=240\n",
      "note_on channel=1 note=42 velocity=64 time=0\n",
      "note_on channel=1 note=42 velocity=0 time=240\n",
      "note_on channel=1 note=54 velocity=64 time=0\n",
      "note_on channel=1 note=49 velocity=64 time=0\n",
      "note_on channel=1 note=49 velocity=0 time=240\n",
      "note_on channel=1 note=54 velocity=0 time=0\n",
      "note_on channel=1 note=42 velocity=64 time=0\n",
      "note_on channel=1 note=42 velocity=0 time=240\n",
      "note_on channel=1 note=45 velocity=64 time=0\n",
      "note_on channel=1 note=45 velocity=0 time=240\n",
      "note_on channel=1 note=45 velocity=64 time=0\n",
      "note_on channel=1 note=45 velocity=0 time=240\n",
      "note_on channel=1 note=57 velocity=64 time=0\n",
      "note_on channel=1 note=52 velocity=64 time=0\n",
      "note_on channel=1 note=52 velocity=0 time=240\n",
      "note_on channel=1 note=57 velocity=0 time=0\n",
      "note_on channel=1 note=45 velocity=64 time=0\n",
      "note_on channel=1 note=45 velocity=0 time=240\n",
      "note_on channel=1 note=45 velocity=64 time=0\n",
      "note_on channel=1 note=45 velocity=0 time=240\n",
      "note_on channel=1 note=45 velocity=64 time=0\n",
      "note_on channel=1 note=45 velocity=0 time=240\n",
      "note_on channel=1 note=52 velocity=64 time=0\n",
      "note_on channel=1 note=57 velocity=64 time=0\n",
      "note_on channel=1 note=57 velocity=0 time=240\n",
      "note_on channel=1 note=52 velocity=0 time=0\n",
      "note_on channel=1 note=45 velocity=64 time=0\n",
      "note_on channel=1 note=45 velocity=0 time=240\n",
      "note_on channel=1 note=45 velocity=64 time=0\n",
      "note_on channel=1 note=45 velocity=0 time=240\n",
      "note_on channel=1 note=45 velocity=64 time=0\n",
      "note_on channel=1 note=45 velocity=0 time=240\n",
      "note_on channel=1 note=52 velocity=64 time=0\n",
      "note_on channel=1 note=57 velocity=64 time=0\n",
      "note_on channel=1 note=57 velocity=0 time=240\n",
      "note_on channel=1 note=52 velocity=0 time=0\n",
      "note_on channel=1 note=45 velocity=64 time=0\n",
      "note_on channel=1 note=45 velocity=0 time=240\n",
      "note_on channel=1 note=45 velocity=64 time=0\n",
      "note_on channel=1 note=45 velocity=0 time=240\n",
      "note_on channel=1 note=57 velocity=64 time=0\n",
      "note_on channel=1 note=57 velocity=0 time=240\n",
      "note_on channel=1 note=44 velocity=64 time=0\n",
      "note_on channel=1 note=44 velocity=0 time=240\n",
      "note_on channel=1 note=56 velocity=64 time=0\n",
      "note_on channel=1 note=56 velocity=0 time=240\n",
      "<meta message end_of_track time=0>\n"
     ]
    }
   ],
   "source": [
    "midi_file = mido.MidiFile(pwd + music[3])\n",
    "print(music[0])\n",
    "for track in midi_file.tracks:\n",
    "    for msg in track:\n",
    "        print(msg)"
   ]
  },
  {
   "cell_type": "code",
   "execution_count": null,
   "metadata": {},
   "outputs": [],
   "source": []
  }
 ],
 "metadata": {
  "kernelspec": {
   "display_name": "Python 3",
   "language": "python",
   "name": "python3"
  },
  "language_info": {
   "codemirror_mode": {
    "name": "ipython",
    "version": 3
   },
   "file_extension": ".py",
   "mimetype": "text/x-python",
   "name": "python",
   "nbconvert_exporter": "python",
   "pygments_lexer": "ipython3",
   "version": "3.6.6"
  }
 },
 "nbformat": 4,
 "nbformat_minor": 2
}
